<?xml version="1.0" encoding="UTF-8" standalone="no"?>
<!-- Generator: Adobe Illustrator 16.0.0, SVG Export Plug-In . SVG Version: 6.00 Build 0)  -->

<svg
   version="1.1"
   id="Layer_1"
   x="0px"
   y="0px"
   width="280px"
   height="280px"
   viewBox="0 0 280 280"
   enable-background="new 0 0 280 280"
   xml:space="preserve"
   sodipodi:docname="anime.svg"
   inkscape:version="1.4 (e7c3feb100, 2024-10-09)"
   xmlns:inkscape="http://www.inkscape.org/namespaces/inkscape"
   xmlns:sodipodi="http://sodipodi.sourceforge.net/DTD/sodipodi-0.dtd"
   xmlns="http://www.w3.org/2000/svg"
   xmlns:svg="http://www.w3.org/2000/svg"><defs
   id="defs216276">
	
	
	
</defs><sodipodi:namedview
   id="namedview216274"
   pagecolor="#ffffff"
   bordercolor="#666666"
   borderopacity="1.0"
   inkscape:pageshadow="2"
   inkscape:pageopacity="0.0"
   inkscape:pagecheckerboard="0"
   showgrid="false"
   inkscape:zoom="1.4857143"
   inkscape:cx="168.60577"
   inkscape:cy="79.423076"
   inkscape:window-width="1600"
   inkscape:window-height="826"
   inkscape:window-x="0"
   inkscape:window-y="0"
   inkscape:window-maximized="1"
   inkscape:current-layer="Layer_1"
   inkscape:showpageshadow="2"
   inkscape:deskcolor="#d1d1d1" />
<g
   inkscape:groupmode="layer"
   id="layer2"
   inkscape:label="BG" />
<g
   inkscape:groupmode="layer"
   id="layer1"
   inkscape:label="Logo" /><path
   style="fill:#000000;stroke-width:1.01628"
   d="m -940.6263,418.91809 v -74 h 352.71307 352.71307 v 74 74 H -587.91323 -940.6263 Z m 287.91354,12.75 0.26907,-43.75 h 17.54733 17.54734 v -10.5 -10.5 h -48.54324 -48.54323 v 10.5 10.5 h 17.55819 17.55819 v 44.02988 44.02987 l 13.16865,-0.27987 13.16864,-0.27988 z m 154.47031,40 c 0.90424,-2.3375 6.11299,-16.625 11.57501,-31.75 5.46203,-15.125 13.61608,-37.59718 18.12013,-49.93818 4.50405,-12.34101 8.18917,-22.57851 8.18917,-22.75 0,-0.1715 -6.21851,-0.31182 -13.81892,-0.31182 h -13.8189 l -12.17429,34.75 c -14.19666,40.52255 -13.73571,39.25 -14.21718,39.25 -0.20515,0 -6.14255,-16.64734 -13.19421,-36.99409 l -12.82119,-36.99408 -13.68506,-0.006 c -8.25054,-0.004 -13.68506,0.38317 -13.68506,0.97385 0,0.53887 0.6791,2.67637 1.50911,4.75 0.83002,2.07363 8.97713,24.92024 18.1047,50.77024 9.12756,25.85 17.10319,48.2375 17.72363,49.75 l 1.12805,2.75 h 14.71048 14.71048 l 1.64405,-4.25 z M -709.84479,304.97966 c -15.10444,-2.3018 -23.87097,-10.67185 -28.05922,-26.79025 -2.21108,-8.50925 -2.5945,-52.15883 -0.54167,-61.6655 2.70489,-12.52646 9.0936,-21.82774 17.99105,-26.19309 9.96326,-4.88826 28.56707,-5.30603 39.491,-0.88682 8.98297,3.634 16.58662,13.94913 19.25791,26.12532 1.62882,7.42443 2.38724,42.56865 1.14049,52.84877 -2.50342,20.642 -9.33964,30.95254 -23.20043,34.99141 -6.06744,1.76798 -19.48138,2.5756 -26.07913,1.57016 z m 17.69792,-17.94725 c 7.16703,-4.23151 9.10541,-14.69878 8.43481,-45.54827 -0.53606,-24.66043 -1.61548,-30.10082 -6.95496,-35.05374 -2.64839,-2.45666 -3.99982,-2.91508 -8.72489,-2.95961 -13.60243,-0.12821 -17.06833,8.59269 -17.06833,42.9473 0,33.7606 3.33637,42.35354 16.48444,42.45622 2.78798,0.0218 5.92068,-0.71525 7.82893,-1.8419 z m -187.43643,11.63568 c -0.59044,-2.8875 -4.79162,-25.05 -9.33595,-49.25 -4.54433,-24.2 -8.97426,-47.6 -9.84428,-52 -0.87002,-4.4 -1.58194,-8.1125 -1.58204,-8.25 -9e-5,-0.1375 5.10351,-0.25 11.34133,-0.25 10.92207,0 11.36035,0.0832 11.8509,2.25 0.28018,1.2375 1.89733,11.475 3.59369,22.75 1.69636,11.275 4.33993,28.825 5.87461,39 1.53467,10.175 3.07937,18.83028 3.43269,19.23395 0.3533,0.40367 3.56677,-17.14633 7.14104,-39 3.57427,-21.85367 6.7461,-40.74645 7.04854,-41.98395 0.52854,-2.16273 0.98543,-2.25 11.7794,-2.25 10.79787,0 11.25017,0.0865 11.76621,2.25 0.29518,1.2375 3.34597,19.575 6.77956,40.75 3.43358,21.175 6.51506,39.175 6.84774,40 0.43327,1.07448 13.24281,-75.78477 13.70796,-82.25 0.0296,-0.4125 5.20342,-0.75 11.49721,-0.75 h 11.44324 l -0.58898,2.75 c -0.32394,1.5125 -5.00143,26.375 -10.39442,55.25 -5.393,28.875 -10.05388,53.5125 -10.35752,54.75 -0.53745,2.19033 -0.90766,2.25 -13.95926,2.25 -10.03434,0 -13.40852,-0.31446 -13.41252,-1.25 -0.003,-0.6875 -1.35083,-9.575 -2.99533,-19.75 -1.6445,-10.175 -4.52911,-28.28228 -6.41023,-40.23839 -1.88112,-11.95612 -3.71631,-21.40612 -4.07821,-21 -0.36189,0.40611 -2.37578,11.76339 -4.47528,25.23839 -2.09952,13.475 -5.02124,31.8125 -6.49272,40.75 l -2.67542,16.25 h -13.21421 -13.21421 z m 271.52979,-52.25 v -57.5 h 26.14983 c 29.56954,0 33.64723,0.65129 40.70646,6.50163 5.79739,4.80459 8.54065,11.99208 8.54065,22.37695 0,14.04667 -4.33798,22.4529 -13.77008,26.68392 -4.21679,1.89157 -4.84182,2.46628 -3.21937,2.96018 13.36753,4.0693 14.71778,6.67403 16.43634,31.70703 1.14461,16.67243 1.56189,19.24751 3.53838,21.83587 l 2.24074,2.93442 h -13.41796 -13.41796 l -0.97207,-3.75 c -0.53465,-2.0625 -1.2118,-10.53906 -1.50478,-18.8368 -0.81742,-23.15039 -2.55985,-25.71383 -17.84943,-26.25973 l -9.70555,-0.34653 v 24.59653 24.59653 h -11.8776 -11.8776 z m 43.80259,-9.52633 c 5.28446,-2.591 7.25135,-6.27684 7.61731,-14.2744 0.5644,-12.33479 -3.9736,-16.48677 -19.00261,-17.38618 l -8.66209,-0.51839 v 17.20527 17.20526 l 8.52089,-0.37895 c 4.68648,-0.20842 9.87341,-1.0421 11.5265,-1.85261 z m 90.46593,9.52633 v -57.5 h 11.8776 11.8776 v 48 48 h 21.17311 21.17311 v 9.5 9.5 h -33.05071 -33.05071 z m 120.84166,0.11199 v -57.56971 l 20.39849,-0.27114 c 24.45284,-0.32503 31.59512,0.34772 38.15643,3.59404 9.09214,4.49849 14.32021,11.74563 17.5758,24.3635 1.37534,5.33053 1.74135,11.34605 1.7201,28.27132 -0.0303,24.10071 -1.19815,31.69112 -6.40342,41.61701 -3.84329,7.32875 -7.25697,10.49859 -15.1579,14.07517 -6.17132,2.79362 -6.30081,2.80667 -31.24325,3.14738 l -25.04625,0.34214 z m 45.11253,37.83604 c 7.41323,-5.21972 10.23012,-18.78337 9.33477,-44.94803 -0.60292,-17.61915 -2.09701,-23.97696 -6.77993,-28.85064 -3.61962,-3.76707 -6.31859,-4.67394 -15.89843,-5.34193 l -8.01374,-0.55878 v 41.22517 41.22518 l 9.22152,-0.3495 c 7.27657,-0.27579 9.8362,-0.78229 12.13581,-2.40147 z M -894.66515,122.03925 c -9.09058,-4.03754 -15.56191,-14.31933 -14.76856,-23.46459 0.27829,-3.20797 8.22152,-26.8851 21.02009,-62.65657 l 20.57277,-57.5 5.17887,-5.05536 c 8.47342,-8.27133 20.66461,-9.86175 30.93296,-4.0354 5.5207,3.13249 5.66085,3.32876 33.6242,47.09076 9.8404,15.4 18.21279,28.35897 18.60532,28.79771 0.39252,0.43873 5.73542,-13.28627 11.87312,-30.5 6.13771,-17.21374 12.2438,-33.40731 13.5691,-35.9857 4.13314,-8.04112 12.66711,-12.82733 22.80505,-12.79005 14.15871,0.0521 25.00232,10.51257 25.05674,24.17148 0.0236,5.90353 1.02605,2.9307 -32.70654,96.98545 -9.75929,27.21132 -11.50011,30.17763 -20.22122,34.45646 -4.48839,2.20213 -6.28405,2.51501 -12.6483,2.20385 -6.05964,-0.29627 -8.34411,-0.91724 -12.48087,-3.39256 -4.69314,-2.80825 -6.76371,-5.67778 -28.30237,-39.22348 -12.78133,-19.90645 -23.48639,-36.20022 -23.78903,-36.20836 -0.30263,-0.008 -5.59413,14.0477 -11.75888,31.2352 -6.16475,17.1875 -12.0287,32.8309 -13.03099,34.76311 -4.40538,8.49268 -12.20593,12.94297 -22.6867,12.94297 -4.32253,0 -8.18475,-0.65348 -10.84476,-1.83492 z m 221.71696,-0.72454 c -8.69716,-4.1962 -13.60076,-12.05164 -13.60076,-21.78808 0,-4.50088 3.61958,-15.57541 20.68168,-63.27806 15.18385,-42.45143 21.45961,-58.75386 23.60811,-61.32643 4.53108,-5.42541 12.50158,-9.00405 20.05423,-9.00405 7.72595,0 13.58119,2.53961 18.83388,8.16887 8.34534,8.94363 8.7618,16.017 2.03097,34.49551 -2.55627,7.01786 -4.64776,12.88932 -4.64776,13.04768 0,0.15837 13.15026,0.28794 29.22281,0.28794 h 29.2228 l 6.06411,-17.25 c 3.33526,-9.4875 7.17345,-19.725 8.52932,-22.75 4.81136,-10.73437 12.57261,-15.93996 23.82239,-15.97804 7.55673,-0.0256 11.79322,1.45909 17.14456,6.00826 5.96884,5.07411 8.25367,10.21255 8.21263,18.46978 -0.0322,6.4758 -1.48545,11.00638 -19.40641,60.5 -10.65439,29.425 -19.79262,54.9052 -20.30718,56.62267 -1.32205,4.41268 -8.84592,12.32817 -13.78154,14.49886 -4.84917,2.13266 -13.40926,2.42005 -19.54401,0.65615 -6.46565,-1.85905 -13.53667,-9.21658 -15.66268,-16.29732 -2.11942,-7.05875 -1.67062,-10.11957 3.69131,-25.17542 2.25791,-6.33999 4.10528,-12.15223 4.10528,-12.9161 0,-1.1519 -4.91092,-1.38884 -28.78577,-1.38884 h -28.78576 l -7.01145,19.75 c -9.98299,28.12032 -11.46964,30.54294 -21.86564,35.63195 -5.30528,2.59701 -15.33913,2.14402 -21.82512,-0.98533 z m 222.32879,0.22261 c -6.5398,-2.94843 -11.39093,-8.51646 -13.50031,-15.49539 -2.08867,-6.91043 -1.52169,-10.20662 4.75158,-27.62384 7.70876,-21.40271 22.94609,-64.0491 29.59215,-82.8228 6.59888,-18.64043 9.93715,-23.67432 18.2988,-27.59345 6.02965,-2.8261 15.99279,-2.83758 21.99288,-0.0253 6.09137,2.85504 11.32521,8.80796 13.2439,15.06348 2.32734,7.58783 2.10057,9.37629 -3.04207,23.9927 -2.55729,7.26832 -4.53259,13.31631 -4.38955,13.43998 0.14304,0.12365 17.68916,-10.54111 38.99137,-23.69949 46.90571,-28.97365 46.68174,-28.85512 54.52071,-28.85512 20.02252,0 31.62039,20.76608 20.5229,36.74643 -2.81294,4.05062 -7.41274,7.24539 -33.4393,23.22512 -16.59775,10.19065 -30.99684,19.02203 -31.99799,19.62529 -1.59915,0.9636 0.24751,3.18779 15.20161,18.30937 20.71675,20.94879 22.19432,23.12178 22.16265,32.59379 -0.0488,14.59257 -10.05427,24.42657 -24.9049,24.47804 -10.73667,0.0372 -13.27235,-1.89461 -45.25547,-34.47804 -15.65615,-15.95 -28.81121,-29.1069 -29.23346,-29.23756 -0.42225,-0.13066 -4.94608,11.51619 -10.05295,25.8819 -7.92597,22.29585 -9.85542,26.74664 -13.18028,30.4038 -7.78874,8.56717 -19.52628,10.92036 -30.28227,6.07109 z M -585.61569,-72.69074 c -0.34585,-0.33486 -0.66855,-26.65986 -0.71711,-58.5 l -0.0883,-57.89117 h 175.10981 175.10981 l -0.0483,57.0005 c -0.0266,31.35027 -0.31582,57.67527 -0.64268,58.5 -0.52496,1.32445 -20.87819,1.4995 -174.34436,1.4995 -95.56251,0 -174.03299,-0.27397 -174.37884,-0.60883 z"
   id="path1105" /><g
   id="g1"
   transform="matrix(0.7088955,0,0,0.68635904,35.77787,170.64498)"><path
     style="fill:#a6a6a8"
     d="m -1.75,-14.162281 c 0.6875,-0.277412 1.8125,-0.277412 2.5,0 0.6875,0.277413 0.125,0.504386 -1.25,0.504386 -1.375,0 -1.9375,-0.226973 -1.25,-0.504386 z M -10.031303,-20.75 -16,-27 l 6.25,5.968697 c 3.4375,3.282783 6.25,6.095283 6.25,6.25 0,0.738902 -0.9868935,-0.16298 -6.531303,-5.968697 z m 270.800333,3.557009 c 0.97297,-0.253543 2.32297,-0.236869 3,0.03705 0.67703,0.273923 -0.11903,0.481368 -1.76903,0.460988 -1.65,-0.02038 -2.20394,-0.244498 -1.23097,-0.498042 z M 55.58599,-24.881784 53.171981,-28 l 2.860979,2.719697 c 1.573539,1.495833 2.659843,2.899031 2.41401,3.118216 -0.245834,0.219186 -1.533274,-1.004677 -2.86098,-2.719697 z m 239.00483,1.800314 C 287.15525,-25.414976 269.77889,-27.636569 253.5,-28.334993 L 238,-29 l -0.28893,-8.75 c -0.28659,-8.679057 -0.26923,-8.75 2.14142,-8.75 1.90403,0 2.7787,-0.87062 4.03893,-4.020236 2.22487,-5.56049 2.03281,-6.782654 -1.14142,-7.26351 -1.93088,-0.292503 -1.48408,-0.461219 1.5,-0.566422 2.3375,-0.08241 4.25,0.07043 4.25,0.339647 0,0.269213 -1.17285,3.419213 -2.60634,7 -1.92334,4.804419 -3.10258,6.510521 -4.5,6.510521 -1.67381,0 -1.89366,0.794814 -1.89366,6.845981 v 6.84598 l 12.75,0.647997 c 18.17324,0.923623 32.61424,2.883307 45.5,6.174477 l 2.75,0.702381 v -7.471561 -7.47156 l -8.25,-1.593207 C 281.27086,-41.93976 269.33504,-43.5 264.09431,-43.5 c -2.34354,0 -4.50435,-0.243375 -4.80181,-0.540834 -0.29746,-0.297458 0.62643,-3.656381 2.05308,-7.464272 l 2.59391,-6.923438 8.31915,-0.285728 8.31915,-0.285728 3.51901,-6.25 3.51902,-6.25 h -10.57696 c -10.4571,0 -10.57103,-0.0255 -10.05362,-2.25 0.28783,-1.2375 0.87723,-4.05 1.30977,-6.25 0.58617,-2.981387 1.28537,-4.025028 2.74571,-4.098283 1.28615,-0.06452 1.40067,0.03968 0.33333,0.303296 -1.10878,0.273846 -1.7943,1.895118 -2.15522,5.097143 -0.29109,2.58256 -0.32035,5.033577 -0.065,5.446704 0.25533,0.413127 4.93768,0.75114 10.40522,0.75114 5.46754,0 9.94098,0.239521 9.94098,0.532268 0,0.292748 -1.9125,3.887969 -4.25,7.989381 l -4.25,7.457111 -8.01528,0.01062 -8.01528,0.01062 -1.80875,5.09264 c -0.99481,2.800952 -1.66291,5.238478 -1.48466,5.416723 0.17825,0.178246 5.94906,1.039739 12.82403,1.91443 6.87497,0.87469 15.98744,2.327258 20.24994,3.227929 l 7.75,1.637583 v 8.855348 c 0,9.966959 0.17101,9.809683 -7.90918,7.273877 z M -9.0629088,-28.670497 -12,-31.840995 l 3.2841941,2.26294 3.2841941,2.26294 4.7104307,-3.842442 C 8.930458,-39.030695 19.638589,-52.12578 23.682372,-61.000918 24.308634,-62.375413 25.225356,-63.5 25.719532,-63.5 c 0.494176,0 0.577416,-0.519529 0.184976,-1.154508 -0.451852,-0.731113 -0.273231,-0.882392 0.487063,-0.412505 2.44656,1.512057 -10.680474,21.376981 -19.6194306,29.68976 C 1.8743173,-30.822524 -4.823496,-25.5 -5.6572997,-25.5 c -0.2576848,0 -1.7902089,-1.426724 -3.4056091,-3.170497 z M 69.5,-31 c 0,-3.012484 -0.06281,-3.018765 -5,-0.5 -2.156178,1.1 -4.312666,2 -4.792194,2 -1.237986,0 -8.957358,-10.60665 -11.826524,-16.25 L 45.466308,-50.5 H 34.449215 23.432122 l 3.996457,-7.25 c 3.869582,-7.019837 4.127278,-7.259891 8.1173,-7.561571 2.99516,-0.22646 3.977506,-0.685106 3.596118,-1.678986 C 37.938731,-70.126218 37.28207,-75.974981 38.242749,-75 39.05949,-74.171099 41.5,-65.972144 41.5,-64.05718 c 0,0.306449 -1.981565,0.55718 -4.403478,0.55718 -4.266656,0 -4.49617,0.163126 -7.386616,5.25 -1.640726,2.8875 -2.782603,5.5875 -2.537505,6 0.245098,0.4125 4.624488,0.75 9.731978,0.75 h 9.286345 l 5.04457,8.25 c 2.774513,4.5375 6.024149,9.134437 7.221411,10.215417 2.172088,1.961124 2.187614,1.959361 7.110068,-0.807686 L 70.5,-36.615371 V -33.557686 -30.5 h 7.5 7.5 v -16.656829 -16.656829 l 4.90766,6.988254 c 2.699212,3.84354 8.324212,10.136397 12.5,13.984126 5.81764,5.360593 7.59234,7.620614 7.59234,9.668575 0,2.659364 0.0374,2.672703 7.5,2.672703 h 7.5 v -38.092721 -38.092719 l -7.25,3.98522 -7.25,3.985217 -0.26983,21.725761 -0.26983,21.725762 -4.23017,-4.773335 C 95.475734,-72.172154 85.5,-88.70653 85.5,-94.396233 V -97.5 H 78 70.5 v 28.246803 28.246802 l -3.561208,-4.996802 C 60.804934,-54.609735 54.760202,-69.081456 53.035712,-79.288621 52.327327,-83.481516 52.337757,-83.5 55.412102,-83.5 H 58.5 v -7 c 0,-6.936683 -0.02487,-7.001232 -2.75,-7.136182 -2.438774,-0.12077 -2.489131,-0.186044 -0.444958,-0.576764 C 59.288167,-98.974274 60.5,-96.913234 60.5,-89.377555 V -82.5 h -3.111291 c -3.045905,0 -3.097424,0.07881 -2.451467,3.75 1.685467,9.579081 7.983043,24.919886 12.419217,30.253036 L 69.433461,-46 69.466731,-72.75 69.5,-99.5 h 9 9 v 4.758418 c 0,3.958664 0.882375,6.234166 5.25,13.538907 5.76481,9.641494 14.59611,21.1899 15.50743,20.278574 0.31808,-0.318079 0.61528,-9.143324 0.66045,-19.611655 L 109,-99.569084 l 9.25,-5.006546 9.25,-5.00654 v 40.578609 40.578613 L 118.25,-28.712474 109,-29 l -0.31671,-3 c -0.23063,-2.184606 -2.5661,-5.310282 -8.59268,-11.5 -4.551783,-4.675 -9.246764,-9.798186 -10.43329,-11.384859 L 87.5,-57.769717 V -43.134859 -28.5 h -9 c -8.933333,0 -9,-0.01852 -9,-2.5 z m 65.12254,-10.75 c 0.0674,-7.2875 0.46288,-17.975 0.87885,-23.75 0.61078,-8.479531 0.73876,-6.170423 0.66511,12 l -0.0912,22.5 7.69311,0.291718 7.6931,0.291718 0.28938,-22.291718 L 152.04026,-75 152.27013,-51.75 152.5,-28.5 h -9 -9 z m 25.5801,12.619311 c -0.38645,-0.386455 -0.61805,-16.490144 -0.51467,-35.785978 L 159.87595,-100 l 0.67642,28 c 0.37204,15.4 0.73745,31.0375 0.81203,34.75 l 0.1356,6.75 h 7.5 7.5 l 0.0989,-17.25 c 0.0544,-9.4875 0.44533,-19.725 0.86876,-22.75 0.47757,-3.411749 0.72478,3.422528 0.65111,18 L 178,-29 l -8.54736,0.285977 c -4.70104,0.157288 -8.86354,-0.03021 -9.25,-0.416666 z M 212.5,-51.981526 v -23.556578 l -2.75,0.611997 c -6.76232,1.504917 -6.25,0.119056 -6.25,16.906629 v 15.345746 l -7.57678,4.086866 c -4.16724,2.247776 -7.76724,4.086866 -8,4.086866 -0.23277,0 -0.42322,-8.775 -0.42322,-19.5 0,-16.994746 -0.20029,-19.5 -1.55902,-19.5 -0.85746,0 -1.2809,-0.45 -0.94098,-1 0.33992,-0.55 1.26648,-1 2.05902,-1 1.20408,0 1.44098,3.123629 1.44098,19 0,14.535539 0.29371,18.999028 1.25,18.995864 0.6875,-0.0023 3.725,-1.492249 6.75,-3.311054 l 5.5,-3.306919 0.27484,-15.579126 0.27483,-15.579126 4.60301,-0.690265 c 2.53166,-0.379645 5.22049,-0.927209 5.97517,-1.216808 1.13899,-0.437071 1.37215,3.48488 1.37215,23.080445 V -30.5 h 7.5 7.5 V -64 -97.5 H 222 c -6.86389,0 -7.5,0.171728 -7.5,2.024751 0,2.185167 -3.00518,3.756063 -9,4.704562 -4.72635,0.747803 -2.9505,-0.948638 2.32604,-2.222016 3.50874,-0.84676 4.22439,-1.445577 4.49038,-3.757297 l 0.31642,-2.75 9.18358,6.5e-5 9.18358,6.5e-5 V -64.249935 -29 l -9.25,0.287526 -9.25,0.287526 z m -192,21.103971 c 0,-0.207656 0.7875,-0.995156 1.75,-1.75 1.586056,-1.243871 1.621426,-1.208501 0.377555,0.377555 C 21.321186,-30.584252 20.5,-30.054521 20.5,-30.877555 Z m -36.620576,-8.001869 c 0.126145,-0.859478 0.508613,-1.841946 0.84993,-2.183263 0.341316,-0.341317 0.517366,0.08263 0.391222,0.942111 -0.126145,0.859478 -0.508613,1.841946 -0.84993,2.183263 -0.341316,0.341317 -0.517366,-0.08263 -0.391222,-0.942111 z M 36.5,-38.5 27,-39.117168 l 9.190983,-0.191416 c 5.266195,-0.109676 9.4549,0.23561 9.809017,0.808584 0.339919,0.55 0.478976,0.913863 0.309017,0.808584 C 46.139058,-37.796694 41.725,-38.160557 36.5,-38.5 Z M 307.44617,-41.25 304,-45 l 3.75,3.446167 c 2.0625,1.895392 3.75,3.582892 3.75,3.75 0,0.76362 -0.84622,0.04425 -4.05383,-3.446167 z m -319.403465,-1.180902 c -0.316431,-0.511996 -0.192988,-1.167201 0.274316,-1.456011 0.467305,-0.28881 0.849646,0.130095 0.849646,0.930902 0,1.686167 -0.315337,1.833491 -1.123962,0.525109 z M 0.55749944,-56.069283 c 0.64301286,-0.774783 1.59806516,-1.14359 2.12233856,-0.819571 1.1640963,0.719451 0.2997099,1.701197 -1.76458974,2.004172 -1.20465809,0.176806 -1.28015172,-0.07317 -0.35774882,-1.184601 z M 4.113087,-60.682979 c 0.2888103,-0.467304 0.9440154,-0.590747 1.4560113,-0.274316 1.3083819,0.808625 1.1610578,1.123962 -0.5251096,1.123962 -0.8008063,0 -1.219712,-0.382341 -0.9309017,-0.849646 z m 235.000003,0 c 0.28881,-0.467304 0.94401,-0.590747 1.45601,-0.274316 1.30838,0.808625 1.16106,1.123962 -0.52511,1.123962 -0.80081,0 -1.21971,-0.382341 -0.9309,-0.849646 z m -233.000003,-3 c 0.2888103,-0.467304 0.9440154,-0.590747 1.4560113,-0.274316 1.3083819,0.808625 1.1610578,1.123962 -0.5251096,1.123962 -0.8008063,0 -1.219712,-0.382341 -0.9309017,-0.849646 z M 298.37244,-72.25 c -1.24387,-1.586056 -1.2085,-1.621426 0.37756,-0.377555 1.66575,1.306369 2.19548,2.127555 1.37244,2.127555 -0.20765,0 -0.99515,-0.7875 -1.75,-1.75 z m -52.05448,-0.467958 c 0.53328,-0.533281 1.8049,-0.792548 2.82582,-0.576149 1.37482,0.291413 1.12336,0.542875 -0.9696,0.969603 -1.82482,0.372058 -2.48236,0.232683 -1.85622,-0.393454 z m 4.26099,-3.365375 c 0.048,-1.164943 0.28494,-1.4019 0.60416,-0.604167 0.28887,0.721875 0.25335,1.584375 -0.0789,1.916667 -0.33229,0.332291 -0.56864,-0.258334 -0.52522,-1.3125 z M 36.530626,-77 c 0,-0.55 0.436218,-1.675 0.969374,-2.5 0.533156,-0.825 0.969374,-1.05 0.969374,-0.5 0,0.55 -0.436218,1.675 -0.969374,2.5 -0.533156,0.825 -0.969374,1.05 -0.969374,0.5 z m -41.1581813,-3.25 c -1.2438706,-1.586056 -1.2085003,-1.621426 0.3775553,-0.377555 0.9625,0.754844 1.75,1.542344 1.75,1.75 0,0.823034 -0.8211855,0.293303 -2.1275553,-1.372445 z m 36.6918483,-0.956872 c -0.542685,-1.425198 -0.427821,-1.540062 0.559795,-0.559795 0.683418,0.678334 0.990671,1.485241 0.682784,1.793128 -0.307887,0.307888 -0.867048,-0.247112 -1.242579,-1.233333 z M 252.5,-82.439635 c 0,-0.516799 -1.6875,-1.116152 -3.75,-1.331897 l -3.75,-0.392262 4.25,-0.168103 c 3.18582,-0.126011 4.25,0.207489 4.25,1.331897 0,0.825 -0.225,1.5 -0.5,1.5 -0.275,0 -0.5,-0.422836 -0.5,-0.939635 z M 237.85496,-91 c -0.003,-4.95 0.16605,-7.101078 0.37577,-4.780173 0.20972,2.320905 0.21222,6.370905 0.006,9 C 238.0296,-84.151078 237.858,-86.05 237.85496,-91 Z M 275,-85.242069 c 0.55,-0.5195 4.825,-1.488616 9.5,-2.153592 12.77405,-1.816992 12,-1.248617 12,-8.811484 0,-4.037975 -0.48663,-7.000495 -1.26197,-7.682615 -0.69409,-0.61063 -1.08492,-1.01357 -0.86852,-0.89542 0.2164,0.11815 1.25151,-0.2444 2.30024,-0.80566 1.82066,-0.9744 1.89376,-0.60198 1.61851,8.246511 L 298,-88.077335 l -6,1.2097 c -9.24067,1.863075 -18.15378,2.715359 -17,1.625566 z m -137.5,-0.532959 c 0,-0.151265 3.4875,-3.638765 7.75,-7.75 L 153,-101 l -7.47497,7.75 c -6.94259,7.198029 -8.02503,8.206274 -8.02503,7.474972 z M -5.0745159,-89.833589 c -0.2814605,-0.733475 -0.3757152,-5.120975 -0.2094551,-9.75 L -4.9816797,-108 l 0.4908398,9.752242 c 0.4875149,9.68618 0.3982488,10.973024 -0.583676,8.414169 z M 245.3125,-98.183114 c 0.72187,-0.288871 1.58438,-0.253344 1.91667,0.07895 0.33229,0.332292 -0.25834,0.568641 -1.3125,0.52522 -1.16495,-0.04798 -1.4019,-0.284941 -0.60417,-0.604167 z M 40.75,-100.18933 c 0.9625,-0.25152 2.5375,-0.25152 3.5,0 0.9625,0.251532 0.175,0.457327 -1.75,0.457327 -1.925,0 -2.7125,-0.205795 -1.75,-0.457327 z m 212.51166,-0.0179 c 1.24391,-0.23919 3.04391,-0.23011 4,0.0202 0.95609,0.250292 -0.0617,0.445996 -2.26166,0.434897 -2.2,-0.0111 -2.98225,-0.215885 -1.73834,-0.455077 z M 28.25,-101.16228 c 0.6875,-0.27741 1.8125,-0.27741 2.5,0 0.6875,0.27741 0.125,0.50439 -1.25,0.50439 -1.375,0 -1.9375,-0.22698 -1.25,-0.50439 z m 239,0 c 0.6875,-0.27741 1.8125,-0.27741 2.5,0 0.6875,0.27741 0.125,0.50439 -1.25,0.50439 -1.375,0 -1.9375,-0.22698 -1.25,-0.50439 z m -246.9375,-1.02083 c 0.721875,-0.28887 1.584375,-0.25335 1.916667,0.0789 0.332291,0.3323 -0.258334,0.56864 -1.3125,0.52522 -1.164943,-0.048 -1.4019,-0.28494 -0.604167,-0.60416 z M 91.372445,-103.25 c -1.243871,-1.58606 -1.208501,-1.62143 0.377555,-0.37756 1.665748,1.30637 2.195479,2.12756 1.372445,2.12756 -0.207656,0 -0.995156,-0.7875 -1.75,-1.75 z m 184.940055,1.06689 c 0.72187,-0.28887 1.58438,-0.25335 1.91667,0.0789 0.33229,0.3323 -0.25834,0.56864 -1.3125,0.52522 -1.16495,-0.048 -1.4019,-0.28494 -0.60417,-0.60416 z M 289.5,-103.5 c -0.90129,-0.58246 -1.02463,-0.97549 -0.30902,-0.98469 0.65504,-0.008 1.4691,0.43469 1.80902,0.98469 0.7673,1.24153 0.42112,1.24153 -1.5,0 z m -92.45729,-0.9309 c -0.31644,-0.512 -0.19299,-1.1672 0.27431,-1.45601 0.46731,-0.28881 0.84965,0.13009 0.84965,0.9309 0,1.68617 -0.31534,1.83349 -1.12396,0.52511 z M 57.75,-105.18933 c 0.9625,-0.25152 2.5375,-0.25152 3.5,0 0.9625,0.25153 0.175,0.45733 -1.75,0.45733 -1.925,0 -2.7125,-0.2058 -1.75,-0.45733 z m 15,-0.0497 c 3.1625,-0.19845 8.3375,-0.19845 11.5,0 3.1625,0.19845 0.575,0.36082 -5.75,0.36082 -6.325,0 -8.9125,-0.16237 -5.75,-0.36082 z m 93.40306,-0.011 c -0.25574,-0.4125 1.8552,-0.62143 4.69098,-0.46428 9.19534,0.50957 10.31439,0.91131 2.96498,1.06445 -3.95504,0.0824 -7.40023,-0.18767 -7.65596,-0.60017 z m 47.99829,0 c -0.25667,-0.4125 2.52927,-0.62581 6.19099,-0.47403 11.59965,0.48082 12.9611,0.89867 3.46668,1.06399 -5.05504,0.088 -9.40099,-0.17746 -9.65767,-0.58996 z m 23.59865,0.0607 c 0.9625,-0.25152 2.5375,-0.25152 3.5,0 0.9625,0.25153 0.175,0.45733 -1.75,0.45733 -1.925,0 -2.7125,-0.2058 -1.75,-0.45733 z m -201.5,-0.97295 c 0.6875,-0.27741 1.8125,-0.27741 2.5,0 0.6875,0.27741 0.125,0.50439 -1.25,0.50439 -1.375,0 -1.9375,-0.22698 -1.25,-0.50439 z m 224,0 c 0.6875,-0.27741 1.8125,-0.27741 2.5,0 0.6875,0.27741 0.125,0.50439 -1.25,0.50439 -1.375,0 -1.9375,-0.22698 -1.25,-0.50439 z m -234.9375,-1.02083 c 0.721875,-0.28887 1.584375,-0.25335 1.916667,0.0789 0.332291,0.3323 -0.258334,0.56864 -1.3125,0.52522 -1.164943,-0.048 -1.4019,-0.28494 -0.604167,-0.60416 z m 246,0 c 0.72187,-0.28887 1.58438,-0.25335 1.91667,0.0789 0.33229,0.3323 -0.25834,0.56864 -1.3125,0.52522 -1.16495,-0.048 -1.4019,-0.28494 -0.60417,-0.60416 z"
     id="path7" /><path
     style="fill:#d37a84"
     d="M -11.037592,-32.75 -16,-38 l 5.478861,5 c 3.0133731,2.75 5.6758731,5.1125 5.9166664,5.25 0.2407932,0.1375 0.00839,0.25 -0.5164526,0.25 -0.5248422,0 -3.1873422,-2.3625 -5.9166668,-5.25 z m 268.350092,2.566886 c 0.72187,-0.288871 1.58438,-0.253344 1.91667,0.07895 0.33229,0.332292 -0.25834,0.568641 -1.3125,0.52522 -1.16495,-0.04798 -1.4019,-0.284941 -0.60417,-0.604167 z M 150.94756,-63 c -3.8e-4,-18.15 0.13477,-25.71608 0.30034,-16.813512 0.16557,8.902569 0.16588,23.752569 6.9e-4,33 C 151.0834,-37.56608 150.94794,-44.85 150.94756,-63 Z m -15.25261,29 c 0.0204,-1.65 0.2445,-2.203936 0.49804,-1.230968 0.25354,0.972967 0.23687,2.322967 -0.0371,3 C 135.88201,-31.553936 135.67457,-32.35 135.69495,-34 Z M 5.5,-36.877555 c 0,-0.207656 0.7875,-0.995156 1.75,-1.75 C 8.8360556,-39.871426 8.8714259,-39.836056 7.6275553,-38.25 6.3211855,-36.584252 5.5,-36.054521 5.5,-36.877555 Z M 188.91858,-56.5 c 0,-10.725 0.14711,-15.1125 0.32692,-9.75 0.17981,5.3625 0.17981,14.1375 0,19.5 -0.17981,5.3625 -0.32692,0.975 -0.32692,-9.75 z m 80.39392,13.316886 c 0.72187,-0.288871 1.58438,-0.253344 1.91667,0.07895 0.33229,0.332292 -0.25834,0.568641 -1.3125,0.52522 -1.16495,-0.04798 -1.4019,-0.284941 -0.60417,-0.604167 z M -4,-48.5 c 2.1482425,-2.2 4.13089553,-4 4.40589553,-4 0.275,0 -1.25765299,1.8 -3.40589553,4 -2.1482425,2.2 -4.1308955,4 -4.4058955,4 -0.275,0 1.257653,-1.8 3.4058955,-4 z M 201.90479,-60 c 0.001,-8.8 0.15425,-12.266133 0.33996,-7.702518 0.18572,4.563614 0.18468,11.763614 -0.002,16 C 202.05547,-47.466133 201.90352,-51.2 201.90479,-60 Z m -164.395501,8.751747 c -5.219891,-0.183243 -9.811933,-0.652349 -10.204537,-1.042458 -0.392605,-0.390109 3.653215,-0.566944 8.990711,-0.392967 5.337495,0.173977 10.132037,0.736477 10.654537,1.25 0.5225,0.513523 0.7475,0.840284 0.5,0.726136 -0.2475,-0.114148 -4.72082,-0.357468 -9.940711,-0.540711 z M 106.37244,-59.25 c -1.24387,-1.586056 -1.2085,-1.621426 0.37756,-0.377555 1.66575,1.306369 2.19548,2.127555 1.37244,2.127555 -0.20765,0 -0.99515,-0.7875 -1.75,-1.75 z M 252.65789,-79.5 c 0,-1.375 0.22698,-1.9375 0.50439,-1.25 0.27741,0.6875 0.27741,1.8125 0,2.5 -0.27741,0.6875 -0.50439,0.125 -0.50439,-1.25 z m -220.901155,-4 c 0.224949,-0.825 1.271708,-1.604565 2.326131,-1.732366 1.347044,-0.163268 1.471085,-0.04434 0.417134,0.399944 -0.825,0.347771 -1.871759,1.127335 -2.326131,1.732366 -0.531354,0.707539 -0.680194,0.564832 -0.417134,-0.399944 z M 53.75,-84.189326 c 0.9625,-0.251527 2.5375,-0.251527 3.5,0 0.9625,0.251528 0.175,0.457323 -1.75,0.457323 -1.925,0 -2.7125,-0.205795 -1.75,-0.457323 z m 187,0 c 0.9625,-0.251527 2.5375,-0.251527 3.5,0 0.9625,0.251528 0.175,0.457323 -1.75,0.457323 -1.925,0 -2.7125,-0.205795 -1.75,-0.457323 z M 188.78601,-94 c 0.008,-2.75 0.20172,-3.756313 0.43157,-2.23625 0.22986,1.520062 0.22371,3.770062 -0.0136,5 -0.23736,1.229937 -0.42542,-0.01375 -0.41792,-2.76375 z m 12.91269,-3.75 0.19869,-8.25 0.34957,7.470813 c 0.20429,4.365849 0.84903,7.788289 1.55131,8.234688 0.81754,0.519668 0.64227,0.768769 -0.54827,0.779186 -1.54238,0.0135 -1.72643,-0.963469 -1.5513,-8.234687 z M -3.1637938,-97.5 c 0,-4.125 0.176518,-5.8125 0.3922622,-3.75 0.2157442,2.0625 0.2157442,5.4375 0,7.5 -0.2157442,2.0625 -0.3922622,0.375 -0.3922622,-3.75 z M 47.25,-98.205733 c 1.2375,-0.238353 3.2625,-0.238353 4.5,0 1.2375,0.238353 0.225,0.433369 -2.25,0.433369 -2.475,0 -3.4875,-0.195016 -2.25,-0.433369 z m 202.01166,-0.0015 c 1.24391,-0.239193 3.04391,-0.230112 4,0.02018 0.95609,0.250292 -0.0617,0.445996 -2.26166,0.434897 -2.2,-0.0111 -2.98225,-0.215885 -1.73834,-0.455077 z M 31.3125,-99.183114 c 0.721875,-0.288871 1.584375,-0.253344 1.916667,0.07895 0.332291,0.332292 -0.258334,0.568641 -1.3125,0.52522 -1.164943,-0.04798 -1.4019,-0.284941 -0.604167,-0.604167 z m 234,0 c 0.72187,-0.288871 1.58438,-0.253344 1.91667,0.07895 0.33229,0.332292 -0.25834,0.568641 -1.3125,0.52522 -1.16495,-0.04798 -1.4019,-0.284941 -0.60417,-0.604167 z"
     id="path6" /><path
     style="fill:#f6d800"
     d="m 218.5,6 c 0,-4.7483669 -0.26122,-5.5 -1.91141,-5.5 -1.53792,0 -2.60207,-2.0624688 -5.44585,-10.554852 l -3.53444,-10.554852 4.14468,0.304852 c 4.14344,0.304761 4.14527,0.306722 6.1537,6.602708 1.91321,5.9975159 2.14968,6.2836521 4.95851,6.0000004 2.60824,-0.2633944 3.20703,-0.9920573 5.17536,-6.2978564 2.10947,-5.686227 2.41502,-6.016231 5.84266,-6.310365 1.98924,-0.170701 3.62921,0.0543 3.64438,0.5 0.0152,0.445701 -1.43775,5.180055 -3.22872,10.5207864 -2.56671,7.6540112 -3.68436,9.77174646 -5.27759,9.99999999 -1.61063,0.23074679 -2.08422,1.16267271 -2.3311,4.58707241 -0.25401,3.5233489 -0.76112,4.469077 -2.8151,5.2500002 C 219.05609,12.379673 218.5,11.909206 218.5,6 Z M 58.985681,4.6041124 C 59.477384,1.0290005 59.232927,-1.1157824 58.079519,-3.3462277 56.029673,-7.3101926 56.065358,-7.5 58.860453,-7.5 c 2.133936,0 2.445816,-0.5997679 3.25,-6.25 L 63,-20 74.75,-20.281735 86.5,-20.563471 V -5.5317353 9.5 h -4 -4 V 5 0.5 H 73 C 67.967009,0.5 67.498841,0.69104905 67.486345,2.75 67.453116,8.2255382 66.47191,9.5 62.289531,9.5 H 58.312324 Z M 78.5,-10.057498 c 0,-2.390389 -0.277698,-2.537406 -4.25,-2.25 -3.533024,0.255623 -4.303908,0.687074 -4.569551,2.557498 -0.291387,2.0516938 0.08319,2.25 4.25,2.25 C 78.165366,-7.5 78.5,-7.6872891 78.5,-10.057498 Z M 90.723267,-5.25 91,-20 h 4 4 l 0.283832,10.75 0.283831,10.75 h 6.986497 6.98649 l -2.04065,4 -2.04065,4 H 99.952943 90.446534 Z M 115.5,-5.5 v -15 h 3.96617 3.96617 L 123.71617,-9.75 124,1 l 7.28892,0.2945951 7.28892,0.2945952 -2.22306,3.9554048 L 134.13172,9.5 H 124.81586 115.5 Z m 34,0 v -15 h 10.81194 10.81194 l 2.18806,2.959507 c 1.87513,2.536242 2.18806,4.266147 2.18806,12.09563 0,7.6334805 -0.34014,9.6138113 -2.06809,12.0404925 C 171.36508,9.4982182 171.3571,9.5 160.43191,9.5 H 149.5 Z m 18,-0.054791 v -7.054791 l -4.75,0.304791 L 158,-12 157.6932,-6.6191992 C 157.26587,0.87568454 157.67152,1.5 162.96862,1.5 H 167.5 Z M 179.5,-5.5 v -15 h 11.88646 11.88645 l 0.67051,4.75 c 1.04548,7.406463 1.46923,8.25 4.14429,8.25 h 2.45294 l -2.00367,3.9275053 c -1.64177,3.2181424 -1.84937,4.7533624 -1.14943,8.5 L 208.24179,9.5 h -4.25735 -4.25735 L 199.05227,5 198.37745,0.5 H 192.93873 187.5 V 5 9.5 h -4 -4 z m 16.81955,-4.25 C 196.04899,-11.655075 195.3868,-12 192,-12 c -3.3868,0 -4.04899,0.344925 -4.31955,2.25 -0.29199,2.0559163 0.0806,2.25 4.31955,2.25 4.23894,0 4.61154,-0.1940837 4.31955,-2.25 z m -62.32552,-90.73245 c 2.75668,-8.10499 2.66836,-10.01755 -0.46265,-10.01755 -3.06494,0 -2.44817,-1.27311 1.69562,-3.5 2.89507,-1.55582 4.11987,-3.11045 5.51489,-7 0.98631,-2.75 2.52453,-6.98304 3.41827,-9.40675 l 1.62498,-4.40675 2.47093,6.17587 2.47092,6.17586 8.63651,-4.68497 c 4.75007,-2.57674 9.7615,-5.36216 11.1365,-6.18981 1.375,-0.82766 -1.85855,2.95947 -7.18567,8.41586 l -9.68567,9.92069 2.40535,5.84535 c 1.46072,3.54977 1.92636,5.66749 1.18567,5.39244 -0.67082,-0.2491 -3.59448,-1.05523 -6.49701,-1.79141 l -5.27734,-1.33849 -6.99732,6.943704 -6.99733,6.943705 z"
     id="path5" /><path
     style="fill:#d85663"
     d="m 279.3125,-28.183114 c 0.72187,-0.288871 1.58438,-0.253344 1.91667,0.07895 0.33229,0.332292 -0.25834,0.568641 -1.3125,0.52522 -1.16495,-0.04798 -1.4019,-0.284941 -0.60417,-0.604167 z m -8.0625,-0.979167 c 0.6875,-0.277412 1.8125,-0.277412 2.5,0 0.6875,0.277413 0.125,0.504386 -1.25,0.504386 -1.375,0 -1.9375,-0.226973 -1.25,-0.504386 z m -10.48097,-1.03071 c 0.97297,-0.253543 2.32297,-0.236869 3,0.03705 0.67703,0.273923 -0.11903,0.481368 -1.76903,0.460988 -1.65,-0.02038 -2.20394,-0.244498 -1.23097,-0.498042 z M 70.884042,-31.941587 c -0.304254,-0.792872 -0.342332,-2.255372 -0.08462,-3.25 0.311425,-1.201916 0.507476,-0.900823 0.584574,0.897777 0.113523,2.648383 0.270871,2.713563 7.366001,3.051303 l 7.25,0.345113 -7.281385,0.198697 c -5.554112,0.151563 -7.412611,-0.143273 -7.834573,-1.24289 z m 39.434358,-1.988267 c -0.22023,-1.88642 -0.0445,-3.209862 0.39059,-2.940983 0.43506,0.268879 0.79101,1.567599 0.79101,2.886044 0,2.277401 0.36224,2.414417 7.25,2.742286 l 7.25,0.345113 -7.64059,0.198697 -7.6406,0.198697 z m 29.4316,2.701386 c 2.0625,-0.215745 5.4375,-0.215745 7.5,0 2.0625,0.215744 0.375,0.392262 -3.75,0.392262 -4.125,0 -5.8125,-0.176518 -3.75,-0.392262 z M 161.73605,-64.25 161.97211,-98 l 0.27737,33.206461 0.27737,33.206462 7.23658,0.344841 7.23657,0.344842 -7.75,0.198697 L 161.5,-30.5 Z m 59.50052,33.007764 7.23658,-0.344841 0.27737,-33.206462 L 229.02789,-98 l 0.23606,33.75 0.23605,33.75 -7.75,-0.198697 -7.75,-0.198697 z m 18.45929,-6.507764 0.19586,-7.25 0.34838,6.686246 c 0.3107,5.963152 0.58692,6.732486 2.55414,7.113818 1.8373,0.356149 1.74639,0.45032 -0.54424,0.563754 L 239.5,-30.5 Z M 70.941386,-69 c 4.75e-4,-15.95 0.138544,-22.334972 0.306822,-14.188826 0.168277,8.146146 0.167889,21.196146 -8.63e-4,29 C 71.078593,-46.384972 70.940912,-53.05 70.941386,-69 Z M 99.5,-46 c -2.429029,-2.475 -4.191416,-4.5 -3.916416,-4.5 0.275,0 2.487387,2.025 4.916416,4.5 2.42903,2.475 4.19142,4.5 3.91642,4.5 -0.275,0 -2.48739,-2.025 -4.91642,-4.5 z m 165.75,2.837719 c 0.6875,-0.277412 1.8125,-0.277412 2.5,0 0.6875,0.277413 0.125,0.504386 -1.25,0.504386 -1.375,0 -1.9375,-0.226973 -1.25,-0.504386 z M 110.70124,-76.690983 c -0.11068,-11.930041 0.13626,-21.900545 0.54876,-22.156676 0.4125,-0.25613 0.63376,6.129812 0.49169,14.190983 -0.47677,27.05184 -0.83773,29.815378 -1.04045,7.965693 z M 103.37244,-62.25 c -1.24387,-1.586056 -1.2085,-1.621426 0.37756,-0.377555 1.66575,1.306369 2.19548,2.127555 1.37244,2.127555 -0.20765,0 -0.99515,-0.7875 -1.75,-1.75 z M 249.25,-71.162281 c 0.6875,-0.277412 1.8125,-0.277412 2.5,0 0.6875,0.277413 0.125,0.504386 -1.25,0.504386 -1.375,0 -1.9375,-0.226973 -1.25,-0.504386 z m 22,-0.07496 c 2.8875,-0.202002 7.6125,-0.202002 10.5,0 2.8875,0.202003 0.525,0.367277 -5.25,0.367277 -5.775,0 -8.1375,-0.165274 -5.25,-0.367277 z m -18.67105,-4.846091 c 0.048,-1.164943 0.28494,-1.4019 0.60416,-0.604167 0.28887,0.721875 0.25335,1.584375 -0.0789,1.916667 -0.33229,0.332291 -0.56864,-0.258334 -0.52522,-1.3125 z M 266.69495,-78 c 0.0204,-1.65 0.2445,-2.203936 0.49804,-1.230968 0.25354,0.972967 0.23687,2.322967 -0.0371,3 C 266.88201,-75.553936 266.67457,-76.35 266.69495,-78 Z M 36.710573,-84.100859 C 36.001389,-84.870387 35.862331,-85.5 36.401556,-85.5 c 1.038441,0 2.541728,1.902213 1.94858,2.465672 -0.192575,0.182935 -0.930378,-0.297004 -1.639563,-1.066531 z M 239.82814,-91 c 0.004,-3.85 0.18518,-5.302463 0.40166,-3.227696 0.21647,2.074768 0.21284,5.224768 -0.008,7 -0.22091,1.775233 -0.39803,0.0777 -0.39359,-3.772304 z m 31.48436,4.816886 c 0.72187,-0.288871 1.58438,-0.253344 1.91667,0.07895 0.33229,0.332292 -0.25834,0.568641 -1.3125,0.52522 -1.16495,-0.04798 -1.4019,-0.284941 -0.60417,-0.604167 z m 8,-1 c 0.72187,-0.288871 1.58438,-0.253344 1.91667,0.07895 0.33229,0.332292 -0.25834,0.568641 -1.3125,0.52522 -1.16495,-0.04798 -1.4019,-0.284941 -0.60417,-0.604167 z M 144.5,-89.812909 c 0,-0.1721 1.4625,-1.6346 3.25,-3.25 L 151,-96 l -2.93709,3.25 c -2.73778,3.029455 -3.56291,3.709652 -3.56291,2.937091 z M 40.75,-98.189326 c 0.9625,-0.251527 2.5375,-0.251527 3.5,0 0.9625,0.251528 0.175,0.457323 -1.75,0.457323 -1.925,0 -2.7125,-0.205795 -1.75,-0.457323 z m 214.5,0.02705 c 0.6875,-0.277412 1.8125,-0.277412 2.5,0 0.6875,0.277413 0.125,0.504386 -1.25,0.504386 -1.375,0 -1.9375,-0.226973 -1.25,-0.504386 z m 13.0625,-1.020833 c 0.72187,-0.288871 1.58438,-0.253344 1.91667,0.07895 0.33229,0.332292 -0.25834,0.568641 -1.3125,0.52522 -1.16495,-0.04798 -1.4019,-0.284941 -0.60417,-0.604167 z"
     id="path4" /><path
     style="fill:#5b5c5c"
     d="m 223.3125,22.816886 c 0.72187,-0.288871 1.58437,-0.253344 1.91667,0.07895 0.33229,0.332292 -0.25834,0.568641 -1.3125,0.52522 -1.16495,-0.04798 -1.4019,-0.284941 -0.60417,-0.604167 z m -4.67328,-2.350155 C 217.34078,19.385029 216.70854,18.5 217.23423,18.5 c 0.52569,0 1.77028,0.9 2.76577,2 2.28688,2.526974 1.69506,2.512505 -1.36078,-0.03327 z M 57.424314,16.75 55,14 57.75,16.424314 C 60.320289,18.690201 60.958588,19.5 60.174314,19.5 c -0.179127,0 -1.416627,-1.2375 -2.75,-2.75 z M 52.578947,8.9166667 c 0.04798,-1.164943 0.284941,-1.4018994 0.604167,-0.6041667 0.288871,0.721875 0.253344,1.584375 -0.07895,1.916667 -0.332292,0.332291 -0.568641,-0.2583337 -0.52522,-1.3125003 z M 226.46202,5.6893846 C 226.89125,1.9661821 227.40431,0.98157445 229,0.81882343 c 1.55643,-0.15874681 1.61188,-0.0895682 0.25,0.31191837 -1.27609,0.3761971 -1.75,1.5632833 -1.75,4.3835654 0,2.1272123 -0.35459,4.0868069 -0.78798,4.3546545 -0.43338,0.2678473 -0.54588,-1.612962 -0.25,-4.1795771 z M 86.902488,-5.5 c 0,-8.525 0.153369,-12.0125 0.34082,-7.75 0.187451,4.2625 0.187451,11.2375 0,15.5 -0.187451,4.2625 -0.34082,0.775 -0.34082,-7.75 z m 88.958012,0 c 0,-5.225 0.16854,-7.3625 0.37454,-4.75 0.206,2.6125 0.206,6.8875 0,9.5 -0.206,2.6125 -0.37454,0.475 -0.37454,-4.75 z M 102.75,0.77153162 c 2.0625,-0.21574418 5.4375,-0.21574418 7.5,0 2.0625,0.21574419 0.375,0.39226218 -3.75,0.39226218 -4.125,0 -5.8125,-0.17651799 -3.75,-0.39226218 z m 21.18025,-0.59271093 c -0.27884,-0.72664861 -0.3589,-5.78914859 -0.17791,-11.24999969 L 124.08142,-21 124.29071,-10.29381 124.5,0.41238089 131.75,0.75749344 139,1.102606 131.71862,1.301303 c -5.2587,0.1435012 -7.42222,-0.168312 -7.78837,-1.12248231 z m 33.98157,-0.0480198 C 157.62284,-0.6222587 157.52447,-3.6597587 157.6932,-6.6191992 L 158,-12 l 4.5,-0.08168 4.5,-0.08168 -4.25,0.386472 -4.25,0.386473 V -5.5 0.39041762 l 4.75,0.37454295 4.75,0.37454293 -4.78138,0.1802483 c -3.25749,0.1228003 -4.94885,-0.2561365 -5.3068,-1.18895091 z M 215.25,0.8377193 c 0.6875,-0.27741228 1.8125,-0.27741228 2.5,0 0.6875,0.2774123 0.125,0.504386 -1.25,0.504386 -1.375,0 -1.9375,-0.2269737 -1.25,-0.504386 z M 69.75159,-10.5 c 0.275105,-1.021808 1.813649,-1.537163 4.826131,-1.616573 4.388791,-0.11569 4.392087,-0.113233 0.435255,0.324496 -2.192863,0.242588 -4.364622,0.970045 -4.826131,1.616573 C 69.610186,-9.3676627 69.474051,-9.4691553 69.75159,-10.5 Z m 120.51007,-1.707261 c 1.24391,-0.239193 3.04391,-0.230112 4,0.02018 0.95609,0.250292 -0.0617,0.445996 -2.26166,0.434897 -2.2,-0.0111 -2.98225,-0.215885 -1.73834,-0.455078 z m 86.05084,-3.975853 c 0.72187,-0.288871 1.58438,-0.253344 1.91667,0.07895 0.33229,0.332292 -0.25834,0.568641 -1.3125,0.52522 -1.16495,-0.04798 -1.4019,-0.284941 -0.60417,-0.604167 z M 265.25,-17.162281 c 0.6875,-0.277412 1.8125,-0.277412 2.5,0 0.6875,0.277413 0.125,0.504386 -1.25,0.504386 -1.375,0 -1.9375,-0.226973 -1.25,-0.504386 z M 16,-26.5 c 2.148243,-2.2 4.130896,-4 4.405896,-4 0.275,0 -1.257653,1.8 -3.405896,4 -2.148243,2.2 -4.130896,4 -4.405896,4 -0.275,0 1.257653,-1.8 3.405896,-4 z m 273.3125,2.316886 c 0.72187,-0.288871 1.58438,-0.253344 1.91667,0.07895 0.33229,0.332292 -0.25834,0.568641 -1.3125,0.52522 -1.16495,-0.04798 -1.4019,-0.284941 -0.60417,-0.604167 z M -13.02682,-31.75 -20,-39 l 7.25,6.97318 c 3.9875,3.83525 7.25,7.09775 7.25,7.25 0,0.733507 -1.0501283,-0.239379 -7.52682,-6.97318 z m 297.33932,6.566886 c 0.72187,-0.288871 1.58438,-0.253344 1.91667,0.07895 0.33229,0.332292 -0.25834,0.568641 -1.3125,0.52522 -1.16495,-0.04798 -1.4019,-0.284941 -0.60417,-0.604167 z m -6,-1 c 0.72187,-0.288871 1.58438,-0.253344 1.91667,0.07895 0.33229,0.332292 -0.25834,0.568641 -1.3125,0.52522 -1.16495,-0.04798 -1.4019,-0.284941 -0.60417,-0.604167 z m -9.0625,-0.979167 c 0.6875,-0.277412 1.8125,-0.277412 2.5,0 0.6875,0.277413 0.125,0.504386 -1.25,0.504386 -1.375,0 -1.9375,-0.226973 -1.25,-0.504386 z m -11.5,-1.027045 c 0.9625,-0.251527 2.5375,-0.251527 3.5,0 0.9625,0.251528 0.175,0.457323 -1.75,0.457323 -1.925,0 -2.7125,-0.205795 -1.75,-0.457323 z M -0.5,-28.877555 c 0,-0.207656 0.7875,-0.995156 1.75,-1.75 C 2.8360556,-31.871426 2.8714259,-31.836056 1.6275553,-30.25 0.32118553,-28.584252 -0.5,-28.054521 -0.5,-28.877555 Z m 60,-0.01546 c 0,-0.216156 0.698372,-0.661002 1.551938,-0.988546 0.889925,-0.341496 1.291322,-0.173849 0.940983,0.393011 C 61.405663,-28.538342 59.5,-28.083098 59.5,-28.893011 Z M 68.255249,-31 c -0.262848,-1.375 -0.09031,-2.5 0.383423,-2.5 0.47373,0 0.861328,1.125 0.861328,2.5 0,1.375 -0.17254,2.5 -0.383423,2.5 -0.210882,0 -0.59848,-1.125 -0.861328,-2.5 z m 84.696741,-33.5 c 0,-20.075 0.13345,-28.2875 0.29656,-18.25 0.16311,10.0375 0.16311,26.4625 0,36.5 -0.16311,10.0375 -0.29656,1.825 -0.29656,-18.25 z M -22.095012,-33.75 -24,-36 l 2.25,1.904988 c 1.2375,1.047743 2.25,2.060243 2.25,2.25 0,0.800253 -0.804794,0.209457 -2.595012,-1.904988 z m 77.467457,0.5 c -1.243871,-1.586056 -1.208501,-1.621426 0.377555,-0.377555 0.9625,0.754844 1.75,1.542344 1.75,1.75 0,0.823034 -0.821186,0.293303 -2.127555,-1.372445 z M 186.6987,-53.75 c 0.19882,-20.263208 0.5527,-17.883426 1.04118,7.001751 0.14307,7.288463 -0.0774,13.250963 -0.48988,13.25 -0.4125,-9.63e-4 -0.66059,-9.114251 -0.5513,-20.251751 z m -52.76863,-5.75 c 0,-12.925 0.14251,-18.2125 0.3167,-11.75 0.17418,6.4625 0.17418,17.0375 0,23.5 -0.17419,6.4625 -0.3167,1.175 -0.3167,-11.75 z M 97.968697,-44.75 92,-51 l 6.25,5.968697 c 5.80572,5.544409 6.7076,6.531303 5.9687,6.531303 -0.15472,0 -2.96722,-2.8125 -6.250003,-6.25 z M 203.90479,-58 c 0.001,-8.8 0.15425,-12.266133 0.33996,-7.702518 0.18572,4.563614 0.18468,11.763614 -0.002,16 C 204.05547,-45.466133 203.90352,-49.2 203.90479,-58 Z M 283.25,-43.162281 c 0.6875,-0.277412 1.8125,-0.277412 2.5,0 0.6875,0.277413 0.125,0.504386 -1.25,0.504386 -1.375,0 -1.9375,-0.226973 -1.25,-0.504386 z m -7,-1 c 0.6875,-0.277412 1.8125,-0.277412 2.5,0 0.6875,0.277413 0.125,0.504386 -1.25,0.504386 -1.375,0 -1.9375,-0.226973 -1.25,-0.504386 z M -6,-49.5 c 2.708649,-2.75 5.14981631,-5 5.42481631,-5 0.275,0 -1.71616731,2.25 -4.42481631,5 -2.708649,2.75 -5.149816,5 -5.424816,5 -0.275,0 1.716167,-2.25 4.424816,-5 z m 273.76903,4.307009 c 0.97297,-0.253543 2.32297,-0.236869 3,0.03705 0.67703,0.273923 -0.11903,0.481368 -1.76903,0.460988 -1.65,-0.02038 -2.20394,-0.244498 -1.23097,-0.498042 z M 68.974559,-73 69,-100 l 9.25252,-0.0596 9.25252,-0.0596 -8.986257,0.346889 -8.986257,0.346892 -0.291704,26.71269 L 68.949117,-46 Z m -78.516351,20.25 c 2.4520144,-2.6125 4.5895144,-4.75 4.75,-4.75 0.7508859,0 -0.043018,0.897827 -4.458208,5.041792 L -14,-48 Z M 34.5,-49.5 23,-50.101069 34.190983,-50.300534 C 40.797519,-50.418288 45.635147,-50.090345 46,-49.5 c 0.339919,0.55 0.478976,0.91024 0.309017,0.800534 C 46.139058,-48.809172 40.825,-49.169412 34.5,-49.5 Z m 196.41508,-17 c 0,-10.175 0.1485,-14.3375 0.32999,-9.25 0.18149,5.0875 0.18149,13.4125 0,18.5 -0.18149,5.0875 -0.32999,0.925 -0.32999,-9.25 z M 104.90499,-63.75 103,-66 l 2.25,1.904988 c 2.11444,1.790218 2.70524,2.595012 1.90499,2.595012 -0.18976,0 -1.20226,-1.0125 -2.25,-2.25 z m 195.67396,-3.333333 c 0.048,-1.164943 0.28494,-1.4019 0.60416,-0.604167 0.28887,0.721875 0.25335,1.584375 -0.0789,1.916667 -0.33229,0.332291 -0.56864,-0.258334 -0.52522,-1.3125 z M 100.37244,-69.25 c -1.243866,-1.586056 -1.208496,-1.621426 0.37756,-0.377555 0.9625,0.754844 1.75,1.542344 1.75,1.75 0,0.823034 -0.82119,0.293303 -2.12756,-1.372445 z m 8.37974,-4.75 c 0.0111,-2.2 0.21589,-2.982253 0.45508,-1.738341 0.23919,1.243913 0.23011,3.043913 -0.0202,4 -0.25029,0.956088 -0.446,-0.06166 -0.4349,-2.261659 z m 170.75848,1.554254 C 269.96432,-72.950172 269.00305,-73.179802 268.81808,-75 c -0.15824,-1.557104 -0.089,-1.612466 0.31266,-0.25 0.44863,1.521788 1.87562,1.75 10.94258,1.75 6.28445,0 10.42668,0.397272 10.42668,1 0,0.55 -0.1125,0.911914 -0.25,0.804254 -0.1375,-0.10766 -4.9702,-0.44516 -10.73934,-0.75 z M 36.578947,-75.083333 c 0.04798,-1.164943 0.284941,-1.4019 0.604167,-0.604167 0.288871,0.721875 0.253344,1.584375 -0.07895,1.916667 -0.332292,0.332291 -0.568641,-0.258334 -0.52522,-1.3125 z m 169.733553,0.900219 c 0.72187,-0.288871 1.58437,-0.253344 1.91667,0.07895 0.33229,0.332292 -0.25834,0.568641 -1.3125,0.52522 -1.16495,-0.04798 -1.4019,-0.284941 -0.60417,-0.604167 z M 250.5,-79.45431 c 0,-1.711511 -0.83861,-1.997772 -6.75,-2.30414 l -6.75,-0.349829 7.25,-0.195861 c 7.1189,-0.192318 7.25,-0.150652 7.25,2.30414 0,1.375 -0.225,2.5 -0.5,2.5 -0.275,0 -0.5,-0.87944 -0.5,-1.95431 z M 35.231213,-81.419841 c -0.434974,-1.663345 -0.304831,-2.053777 0.437237,-1.311709 0.581102,0.581102 0.859794,1.646819 0.619313,2.36826 -0.249648,0.748946 -0.702941,0.295653 -1.05655,-1.056551 z M 55.75,-82.189326 c 0.9625,-0.251527 2.5375,-0.251527 3.5,0 0.9625,0.251528 0.175,0.457323 -1.75,0.457323 -1.925,0 -2.7125,-0.205795 -1.75,-0.457323 z M 308.87407,-92 c 0.002,-6.05 0.16696,-8.39607 0.36601,-5.213487 0.19905,3.182582 0.1972,8.132582 -0.004,11 C 309.03467,-83.346069 308.87181,-85.95 308.87407,-92 Z m -294.735696,8 c -0.316583,-0.825 -0.139728,-1.5 0.393011,-1.5 0.532738,0 0.968615,0.675 0.968615,1.5 0,0.825 -0.176855,1.5 -0.393011,1.5 -0.216156,0 -0.652033,-0.675 -0.968615,-1.5 z M 274.3125,-84.183114 c 0.72187,-0.288871 1.58438,-0.253344 1.91667,0.07895 0.33229,0.332292 -0.25834,0.568641 -1.3125,0.52522 -1.16495,-0.04798 -1.4019,-0.284941 -0.60417,-0.604167 z m 7,-1 c 0.72187,-0.288871 1.58438,-0.253344 1.91667,0.07895 0.33229,0.332292 -0.25834,0.568641 -1.3125,0.52522 -1.16495,-0.04798 -1.4019,-0.284941 -0.60417,-0.604167 z M 97.786014,-91 c 0.0075,-2.75 0.201713,-3.756313 0.431567,-2.23625 0.229855,1.520062 0.223712,3.770062 -0.01365,5 C 97.966569,-87.006313 97.778507,-88.25 97.786014,-91 Z m -107.907845,-7.5 c 0,-6.325 0.1623687,-8.9125 0.3608193,-5.75 0.1984507,3.1625 0.1984507,8.3375 0,11.5 -0.1984506,3.1625 -0.3608193,0.575 -0.3608193,-5.75 z M 186.75218,-96 c 0.0111,-2.2 0.21589,-2.982253 0.45508,-1.738341 0.23919,1.243913 0.23011,3.043913 -0.0202,4 -0.25029,0.956088 -0.446,-0.06166 -0.4349,-2.261659 z m 16.57129,-5.00233 c -0.17791,-4.67629 0.014,-8.50129 0.42653,-8.5 0.4125,0.001 0.75,3.82733 0.75,8.50233 0,4.675 -0.19194,8.5 -0.42653,8.5 -0.23459,0 -0.57209,-3.82605 -0.75,-8.50233 z M 48.75,-100.22847 c 2.0625,-0.21574 5.4375,-0.21574 7.5,0 2.0625,0.21575 0.375,0.392264 -3.75,0.392264 -4.125,0 -5.8125,-0.176514 -3.75,-0.392264 z m 115.53352,-0.01 c 2.90594,-0.20265 7.40594,-0.20052 10,0.005 2.59406,0.20525 0.21648,0.371043 -5.28352,0.368439 -5.5,-0.0026 -7.62242,-0.170529 -4.71648,-0.373169 z m 52.46648,0.003 c 2.6125,-0.206 6.8875,-0.206 9.5,0 2.6125,0.206 0.475,0.374544 -4.75,0.374544 -5.225,0 -7.3625,-0.168544 -4.75,-0.374544 z m 24.4777,0.0133 c 1.77523,-0.22091 4.92523,-0.22454 7,-0.008 2.07476,0.21648 0.6223,0.397223 -3.2277,0.40166 -3.85,0.0044 -5.54754,-0.17268 -3.7723,-0.39359 z M 32.25,-101.16228 c 0.6875,-0.27741 1.8125,-0.27741 2.5,0 0.6875,0.27741 0.125,0.50439 -1.25,0.50439 -1.375,0 -1.9375,-0.22698 -1.25,-0.50439 z m 231,0 c 0.6875,-0.27741 1.8125,-0.27741 2.5,0 0.6875,0.27741 0.125,0.50439 -1.25,0.50439 -1.375,0 -1.9375,-0.22698 -1.25,-0.50439 z m -239.9375,-1.02083 c 0.721875,-0.28887 1.584375,-0.25335 1.916667,0.0789 0.332291,0.3323 -0.258334,0.56864 -1.3125,0.52522 -1.164943,-0.048 -1.4019,-0.28494 -0.604167,-0.60416 z M 305.90499,-105.75 304,-108 l 2.25,1.90499 c 1.2375,1.04774 2.25,2.06024 2.25,2.25 0,0.80025 -0.80479,0.20945 -2.59501,-1.90499 z m -257.637081,0.52527 c 1.79735,-0.22256 4.49735,-0.21797 6,0.0102 1.50265,0.22818 0.03209,0.41027 -3.267909,0.40466 -3.3,-0.006 -4.529441,-0.1923 -2.732091,-0.41486 z m 197.000001,0 c 1.79735,-0.22256 4.49735,-0.21797 6,0.0102 1.50265,0.22818 0.0321,0.41027 -3.26791,0.40466 -3.3,-0.006 -4.52944,-0.1923 -2.73209,-0.41486 z M 32.25,-106.16228 c 0.6875,-0.27741 1.8125,-0.27741 2.5,0 0.6875,0.27741 0.125,0.50439 -1.25,0.50439 -1.375,0 -1.9375,-0.22698 -1.25,-0.50439 z m 232,0 c 0.6875,-0.27741 1.8125,-0.27741 2.5,0 0.6875,0.27741 0.125,0.50439 -1.25,0.50439 -1.375,0 -1.9375,-0.22698 -1.25,-0.50439 z M 174,-117.5 c 5.47936,-5.5 10.18748,-10 10.46248,-10 0.275,0 -3.98312,4.5 -9.46248,10 -5.47936,5.5 -10.18748,10 -10.46248,10 -0.275,0 3.98312,-4.5 9.46248,-10 z m -3.92742,-14.09443 c 1.61008,-1.97694 3.12934,-3.42502 3.37614,-3.21795 0.24679,0.20706 -1.07055,1.82456 -2.92742,3.59443 L 167.14516,-128 Z M 180.42431,-136.25 178,-139 l 2.75,2.42431 c 1.5125,1.33338 2.75,2.57088 2.75,2.75 0,0.78428 -0.8098,0.14598 -3.07569,-2.42431 z m -30,-1 L 148,-140 l 2.75,2.42431 c 1.5125,1.33338 2.75,2.57088 2.75,2.75 0,0.78428 -0.8098,0.14598 -3.07569,-2.42431 z"
     id="path3" /><path
     style="fill:#e90116"
     d="M 288.66743,-26.525102 C 278.55231,-28.720565 262.84737,-30.5 253.58578,-30.5 c -3.75968,0 -8.24203,-0.28125 -9.96078,-0.625 -3.10053,-0.620107 -3.125,-0.673996 -3.125,-6.883369 0,-5.235901 0.3006,-6.336978 1.83995,-6.739526 1.13898,-0.297851 2.81577,-2.913834 4.40135,-6.866631 L 249.3027,-58 l -3.90135,-0.307498 c -2.14574,-0.169124 -3.90135,-0.564347 -3.90135,-0.878273 0,-0.313927 1.38303,-2.988053 3.07339,-5.942502 2.31688,-4.049487 3.63993,-5.371727 5.375,-5.371727 2.53333,0 3.55161,-2.90294 3.55161,-10.125 V -84.5 h -6.5 -6.5 v -6.5 -6.5 l 6.75,-8.36e-4 c 12.48965,-0.0015 39.28388,-3.167834 47.5,-5.613104 1.54076,-0.45856 1.75,0.25734 1.75,5.987535 0,3.579604 -0.43757,6.778806 -0.97238,7.109337 -0.53482,0.330532 -6.89845,1.470729 -14.14142,2.533771 -7.24297,1.063042 -13.35212,2.11588 -13.57588,2.339639 -0.22375,0.223759 -0.674,3.593672 -1.00055,7.488696 l -0.59372,7.081861 10.0533,0.28655 10.0533,0.286551 -3.22685,5.5 -3.22686,5.5 -8.26292,0.5 -8.26293,0.5 -2.78233,7.16249 -2.78232,7.16249 7.11078,0.636037 c 10.53934,0.94271 21.25446,2.500251 28.86078,4.195178 l 6.75,1.504113 v 6.419846 c 0,7.428006 0.79026,7.134497 -11.83257,4.394744 z m -299.515268,-6.820413 -4.772655,-4.845515 2.810247,-1.83832 c 8.4405223,-5.521359 19.2381597,-18.330931 24.822898,-29.448174 3.680531,-7.326639 6.689797,-16.248182 5.74847,-17.04244 C 17.342505,-86.873179 12.6125,-87.960835 7.25,-88.936979 l -9.75,-1.774806 v -7.001096 c 0,-5.702349 0.2687575,-6.897969 1.4487826,-6.445149 6.8486734,2.62808 38.0214404,6.628288 51.8012174,6.647324 L 58.5,-97.5 v 6.5 6.5 h -3.437129 c -3.402905,0 -3.431653,0.03734 -2.887135,3.75 1.665563,11.356212 11.245968,33.009463 16.994224,38.409669 L 71.5,-40.151372 V -68.825686 -97.5 h 7 7 l 0.01407,3.75 c 0.02339,6.235863 9.752792,22.507965 20.32925,34 2.15127,2.3375 4.30409,4.25 4.78404,4.25 0.47995,0 0.87264,-9.652976 0.87264,-21.451059 v -21.451059 l 6.3461,-3.548942 c 3.49035,-1.95192 6.64035,-3.54894 7,-3.54894 0.35964,0 0.6539,16.65 0.6539,37 v 37 h -7 c -6.29364,0 -7,-0.198442 -7,-1.966543 0,-1.165908 -3.63558,-5.471253 -8.92981,-10.574909 -4.911398,-4.734601 -10.648898,-11.105722 -12.75,-14.158047 L 86,-63.749181 85.725229,-47.624591 85.450457,-31.5 H 78.475229 C 71.701651,-31.5 71.5,-31.572274 71.5,-34 c 0,-3.157237 -1.22984,-3.141387 -6.738399,0.08684 -4.247538,2.489223 -4.469978,2.517526 -5.894475,0.75 -3.108274,-3.856768 -9.103165,-13.285371 -10.329445,-16.245874 L 47.257359,-52.5 h -9.962013 c -5.479107,0 -9.80161,-0.3375 -9.605562,-0.75 4.813595,-10.128169 4.933839,-10.25 10.11647,-10.25 4.27533,0 4.817082,-0.2255 4.204292,-1.75 -0.386887,-0.9625 -1.398587,-5.35 -2.248223,-9.75 -0.849635,-4.4 -1.692113,-8.5625 -1.872173,-9.25 -0.180059,-0.6875 -1.691504,-1.25 -3.358765,-1.25 -2.349959,0 -3.031385,0.443108 -3.031385,1.971208 0,3.133788 -5.587928,17.599739 -9.502134,24.598994 C 17.010788,-50.01207 7.7366402,-38.617243 0.99800362,-33.127988 -2.1267336,-30.582594 -4.9965023,-28.5 -5.3792602,-28.5 c -0.3827579,0 -2.843618,-2.180482 -5.4685778,-4.845515 z M 136.5,-56.797052 v -25.297052 l 3.75,-3.467286 c 2.0625,-1.907008 5.2125,-4.782525 7,-6.390039 l 3.25,-2.922753 V -63.187091 -31.5 h -7 -7 z M 162.5,-64.5 v -33 h 7 c 6.77062,0 7,0.08065 7,2.461259 0,2.100362 0.75977,2.686888 5.1815,4 7.45948,2.215228 7.66935,2.135199 8.01371,-3.05584 0.29411,-4.433637 0.50621,-4.712951 6.05479,-7.973709 l 5.75,-3.37912 v 7.973706 c 0,8.980391 -0.19963,8.816091 7.8185,6.434963 4.42173,-1.313112 5.1815,-1.899638 5.1815,-4 0,-2.380606 0.22938,-2.461259 7,-2.461259 h 7 v 33 33 h -6.9819 -6.9819 L 214.2681,-54.761246 214,-78.022493 l -6.25,1.347941 -6.25,1.34794 -0.0119,15.663306 L 201.4762,-44 l -5.98814,3.289202 -5.98813,3.289203 v -18.952509 -18.952508 l -6.25,-1.34794 -6.25,-1.347941 -0.2681,23.261247 L 176.4638,-31.5 H 169.4819 162.5 Z"
     id="path2" /><path
     style="fill:#010101"
     d="m 219.87183,20.476337 c -1.7428,-1.782889 -2.50047,-1.977858 -4.18425,-1.076725 C 214.24363,20.172389 191.04692,20.5 137.77395,20.5 H 61.916416 l -4.35461,-4.437025 c -4.321273,-4.403056 -4.350171,-4.480039 -3.774725,-10.055577 0.468695,-4.5412223 0.194123,-6.27237103 -1.431964,-9.0283839 -2.434206,-4.125672 -1.779447,-6.9496639 2.073247,-8.9419701 2.251214,-1.164148 2.909829,-2.339878 3.427849,-6.11925 0.590908,-4.311145 0.381847,-4.965329 -2.664334,-8.337086 -1.818056,-2.012371 -4.764097,-5.778773 -6.546758,-8.369782 L 45.403919,-39.5 36.701959,-39.499463 28,-39.498925 20.541296,-31.343756 C 12.106681,-22.121549 2.3762876,-14.5 -0.96304241,-14.5 c -1.51807979,0 -5.14678069,-3.001581 -11.22742459,-9.287076 -10.286791,-10.633342 -12.601762,-13.787811 -11.74911,-16.009787 0.333186,-0.86827 3.679088,-3.821024 7.435338,-6.561674 7.7821598,-5.678053 16.35331715,-15.566818 20.9215948,-24.137785 l 3.1186994,-5.851279 -5.452563,-1.585104 c -4.0175442,-1.167931 -6.2658794,-2.569693 -8.5428775,-5.326199 L -9.5496999,-87 l 0.27485,-11.89307 c 0.3437156,-14.87297 0.3702884,-14.89929 11.9754153,-11.86274 10.8337566,2.83472 27.7639966,4.9938 45.7994346,5.84073 7.975,0.37449 15.022438,1.09294 15.660972,1.59655 0.717902,0.5662 1.408291,0.51548 1.809017,-0.13291 0.393112,-0.63607 5.314839,-1.04856 12.511105,-1.04856 h 11.86306 l 3.577923,4.18 c 2.94326,3.438536 3.586291,4.990638 3.625101,8.749999 0.03144,3.045848 1.016246,6.40432 2.952822,10.070001 l 2.90564,5.5 0.0472,-11.815741 c 0.0259,-6.498658 0.49996,-12.661759 1.05335,-13.695789 0.55339,-1.03402 7.66689,-5.54215 15.80776,-10.01807 l 14.80159,-8.13802 3.32203,-9.45046 c 2.91713,-8.29865 4.95954,-11.38192 7.53955,-11.38192 0.33472,0 2.81363,2.06256 5.50868,4.58347 l 4.90011,4.58347 8.40849,-4.58347 c 4.62467,-2.52091 9.11651,-4.58347 9.98186,-4.58347 2.22556,0 9.70004,8.09456 9.71298,10.51876 0.007,1.23396 -3.85429,5.86933 -9.93145,11.92369 -8.32878,8.29753 -9.78361,10.2013 -8.96482,11.73124 0.79603,1.48738 2.22358,1.82915 7.69223,1.84162 3.69315,0.008 7.34324,0.41322 8.11131,0.89956 0.95514,0.60478 3.3749,-0.32668 7.65636,-2.94721 9.98479,-6.11137 14.40957,-8.11436 16.47629,-7.45841 1.05348,0.33436 3.63274,2.61703 5.7317,5.0726 l 3.81628,4.46468 16.46144,0.0115 c 23.86796,0.0167 44.71054,-1.91 60.86032,-5.62597 3.51938,-0.8098 7.16349,-1.22967 8.09802,-0.93306 0.93454,0.29661 3.11754,2.30428 4.85113,4.4615 3.12358,3.88687 3.15197,4.02523 3.15197,15.358397 0,12.514185 -0.20514,12.997637 -6,14.140267 -7.52393,1.483567 -7.47467,1.435931 -4.59396,4.442744 1.42668,1.48913 2.59396,3.754483 2.59396,5.034117 0,1.279634 -2.29881,6.343703 -5.10846,11.253487 -2.80965,4.909784 -4.94715,9.05675 -4.75,9.21548 0.19715,0.15873 3.28346,0.881894 6.85846,1.60703 5.41994,1.099356 7.20619,2.016841 10.75,5.521615 l 4.25,4.203185 v 11.574875 c 0,10.638703 -0.17048,11.694287 -2.10787,13.051284 -1.84594,1.2929462 -2.68471,1.2975393 -6.75,0.03696 -8.90969,-2.762746 -27.74915,-5.506375 -41.91983,-6.10487 -12.90007,-0.544831 -14.2177,-0.44668 -13.65594,1.017241 0.82353,2.146096 -7.28363,26.365194 -9.05281,27.044092 -0.75805,0.290892 -1.52122,1.995314 -1.69592,3.787603 -0.38219,3.92104 -4.24763,6.55465 -10.90448,7.429463 -3.67577,0.483052 -4.76874,0.216187 -6.54132,-1.597156 z M 225.25,10.39122 c 1.80593,-0.6755939 2.25,-1.6130379 2.25,-4.7498378 0,-2.9754753 0.44592,-4.0247294 1.86855,-4.3967575 1.35404,-0.35408903 2.84853,-3.4151095 5.42749,-11.1166313 L 238.35496,-20.5 h -4.42748 c -2.43511,0 -4.42748,0.433119 -4.42748,0.962487 0,0.529368 -0.942,3.480206 -2.09333,6.557417 -1.8756,5.0129955 -2.36437,5.562954 -4.69922,5.2875123 -2.23796,-0.2640112 -2.88734,-1.1898739 -4.59922,-6.5574163 l -1.99332,-6.25 h -4.41444 c -3.1103,0 -4.27851,0.369283 -3.9543,1.25 0.25308,0.6875 1.91333,5.6375 3.68945,11 2.59035,7.82083879 3.60872,9.75 5.14684,9.75 1.66044,0 1.91754,0.7464753 1.91754,5.5673877 0,6.0865863 -0.2742,5.9515663 6.75,3.3238323 z M 67.27994,7 C 68.247273,0.50629042 68.253311,0.5 73.519052,0.5 H 78.5 V 5 9.5 h 4.5 4.5 v -15 -15 H 75.113544 62.727088 l -0.670505,4.75 c -1.045487,7.406463 -1.469228,8.25 -4.144295,8.25 h -2.452936 l 2.003664,3.9275053 c 1.648607,3.23153609 1.850638,4.7466114 1.140107,8.5498991 L 57.739566,9.5997983 62.360789,9.2998991 C 66.092579,9.0577207 67.039353,8.6150661 67.27994,7 Z M 69.893011,-9.0817875 C 70.226855,-9.9517706 70.5,-10.851771 70.5,-11.081787 c 0,-0.230017 1.8,-0.418213 4,-0.418213 3.333333,0 4,0.333333 4,2 0,1.7105846 -0.666667,2 -4.606989,2 -3.790128,0 -4.499364,-0.280465 -4,-1.5817875 z M 111.40122,5.9428398 C 112.55555,3.9864017 113.5,1.9614017 113.5,1.4428398 113.5,0.92427792 110.35,0.5 106.5,0.5 h -7 V -10 -20.5 H 95 90.5 v 15 15 h 9.401224 9.401226 z m 25,0 C 137.55555,3.9864017 138.5,1.9614017 138.5,1.4428398 138.5,0.92427792 135.35,0.5 131.5,0.5 h -7 V -10 -20.5 h -4.5 -4.5 v 15 15 h 9.40122 9.40123 z m 37.54789,0.2127693 C 176.21075,3.1904407 176.5,1.8688043 176.5,-5.5 c 0,-7.368804 -0.28925,-8.690441 -2.55089,-11.655609 L 171.39822,-20.5 H 160.44911 149.5 v 15 15 h 10.94911 10.94911 z M 158.5,-5.5 v -6 h 4.5 4.5 v 6 6 H 163 158.5 Z M 187.5,5 V 0.5 h 5.5 c 5.03299,0 5.50116,0.19104905 5.51365,2.25 0.0341,5.6163767 0.97508,6.75 5.60298,6.75 2.41085,0 4.36377,-0.3375 4.33982,-0.75 -0.0239,-0.4125 -0.40904,-2.6379643 -0.85576,-4.9454763 -0.64932,-3.3541018 -0.44136,-4.75790455 1.03697,-7 C 211.05711,-6.8649219 210.97945,-7.5 208.11129,-7.5 c -1.97886,0 -2.49946,-0.6434074 -3.0342,-3.75 -0.35502,-2.0625 -0.89085,-4.9875 -1.19074,-6.5 l -0.54526,-2.75 H 191.42054 179.5 v 15 15 h 4 4 z m 0,-14.5 c 0,-1.703704 0.66667,-2 4.5,-2 3.83333,0 4.5,0.296296 4.5,2 0,1.7037037 -0.66667,2 -4.5,2 -3.83333,0 -4.5,-0.2962963 -4.5,-2 z m 115,-20.461456 v -9.461456 l -3.75,-0.9996 c -6.20759,-1.654695 -20.72922,-3.987259 -29.24389,-4.697356 -4.40336,-0.367226 -8.00574,-0.715485 -8.0053,-0.773908 4.5e-4,-0.05842 0.854,-2.356224 1.89677,-5.106224 l 1.89595,-5 8.03122,-0.289279 8.03123,-0.289279 4.57201,-7.79861 C 288.44259,-68.666404 290.5,-72.473729 290.5,-72.83789 290.5,-73.20205 285.775,-73.5 280,-73.5 h -10.5 v -4.862319 -4.862318 l 5.75,-0.654877 c 3.1625,-0.360183 9.6875,-1.36889 14.5,-2.241572 l 8.75,-1.586694 v -9.512741 c 0,-9.386619 -0.0298,-9.504319 -2.25,-8.877489 -7.83886,2.21317 -28.37485,4.8598 -42.13324,5.43003 L 238,-100 l -0.28753,9.25 -0.28752,9.25 h 6.53752 6.53753 v 3.930449 c 0,3.287251 -0.36035,3.982742 -2.20205,4.25 -1.56755,0.227476 -3.57044,2.696699 -6.9511,8.569551 l -4.74906,8.25 h 4.51849 c 4.22483,0 4.47339,0.146231 3.82442,2.25 -1.49048,4.831752 -3.54884,7.75 -5.46638,7.75 -1.81951,0 -1.97432,0.705688 -1.97432,9 v 9 l 7.25,0.0034 c 15.3529,0.0072 46.76003,4.056831 53.98867,6.961229 1.24373,0.49972 2.59883,0.937105 3.01133,0.971968 0.4125,0.03486 0.75,-4.194269 0.75,-9.39807 z M 7.8443692,-36.260012 C 19.131971,-47.37547 30.85787,-67.229775 33.056428,-78.949094 c 0.865718,-4.614674 2.190316,-4.526127 2.978302,0.199094 0.343946,2.0625 1.215056,5.8875 1.935799,8.5 l 1.310443,4.75 -4.140486,0.0043 c -4.132767,0.0043 -4.147477,0.01791 -7.890486,7.309437 -2.0625,4.017832 -3.75,7.615902 -3.75,7.995711 0,0.37981 4.890688,0.690563 10.868196,0.690563 h 10.868196 l 3.881804,6.647417 c 2.134992,3.65608 5.467236,8.436537 7.404987,10.623238 l 3.523184,3.975819 3.476816,-2.119499 C 67.834203,-33.001062 68.5,-33.018048 68.5,-30.5 c 0,1.859649 0.666667,2 9.5,2 h 9.5 l 0.03168,-14.25 0.03168,-14.25 2.114048,3 c 1.162726,1.65 5.87347,6.680694 10.468322,11.179321 6.8828,6.738664 8.35427,8.720172 8.35427,11.25 V -28.5 h 9.5 9.5 V -69 c 0,-22.275 -0.3375,-40.4801 -0.75,-40.45579 -0.4125,0.0243 -4.575,2.1761 -9.25,4.78174 l -8.5,4.73753 -0.5,19.636057 -0.5,19.636056 -5.5,-7.010438 c -3.025,-3.855741 -7.6375,-10.67762 -10.25,-15.159731 -3.873451,-6.645451 -4.75,-9.034256 -4.75,-12.944885 v -4.795589 l -9.25,0.28752 L 69,-100 68.5,-73.5 68,-47 63.263828,-56.517694 c -2.604895,-5.234731 -5.594707,-12.884731 -6.644025,-17 L 54.71195,-81 l 2.930676,-0.316092 2.930676,-0.316092 -0.286651,-9.183908 L 60,-100 45,-100.6363 c -17.002645,-0.72126 -28.255486,-2.09299 -40.3289567,-4.91614 -4.58092618,-1.07116 -8.7434262,-1.94756 -9.25,-1.94756 -0.5065738,0 -0.9210433,4.21763 -0.9210433,9.372515 v 9.372514 l 8.75,1.731513 c 11.40765,2.257427 11.25,2.200579 11.25,4.056692 0,2.251384 -3.800914,10.915685 -7.8264202,17.840565 -3.9503784,6.795643 -15.6629238,19.490761 -22.0131098,23.859804 l -4.369067,3.005997 6.758962,6.811154 6.7589626,6.811154 3.5953362,-2.440965 c 1.97743491,-1.342532 6.6753024,-5.473961 10.4397054,-9.180955 z M 153.5,-64.5 c 0,-19.8 -0.32904,-36 -0.73121,-36 -0.40217,0 -4.90217,4.153612 -10,9.23025 L 133.5,-82.039501 v 20.623059 c 0,11.342683 0.28911,23.389071 0.64246,26.769751 L 134.78491,-28.5 h 9.35755 9.35754 z m 25,13 c 0,-12.65 0.39375,-23 0.875,-23 0.48125,0 2.28125,0.28125 4,0.625 l 3.125,0.625 v 19.875 c 0,10.93125 0.20721,19.875 0.46047,19.875 0.25326,0 4.30326,-2.105549 9,-4.678998 L 204.5,-42.857996 v -15.321002 c 0,-8.426551 0.39375,-15.321002 0.875,-15.321002 0.48125,0 2.28125,-0.28125 4,-0.625 l 3.125,-0.625 v 23.125 23.125 h 9.51263 9.51263 L 231.26263,-64.25 231,-100 l -9.25,-0.28753 -9.25,-0.28752 v 2.970137 c 0,1.976116 -0.58568,3.133471 -1.75,3.458178 -0.9625,0.268423 -2.7625,0.779072 -4,1.134776 -2.20858,0.634828 -2.25,0.489003 -2.25,-7.920651 0,-4.71207 -0.3375,-8.55123 -0.75,-8.53148 -0.4125,0.0198 -4.35,2.17364 -8.75,4.78642 -7.55141,4.48413 -8.01768,4.963334 -8.31525,8.546038 -0.24287,2.924022 -0.66602,3.660928 -1.8429,3.209317 -0.84021,-0.322418 -2.61085,-0.858079 -3.93475,-1.190358 -1.84855,-0.463955 -2.4071,-1.275119 -2.4071,-3.495735 V -100.5 h -9.5 -9.5 v 36 36 h 9.5 9.5 z m -27.71473,-53.60545 c 3.0374,0.883 5.98524,1.60545 6.55075,1.60545 0.5785,0 0.0738,-2.6751 -1.15391,-6.11637 L 154,-115.73274 l 9.75,-9.17907 c 5.3625,-5.04849 9.75,-9.44554 9.75,-9.77122 0,-0.32568 -4.9767,2.12057 -11.05934,5.4361 -6.23243,3.39719 -11.41251,5.63951 -11.86851,5.13759 -0.44504,-0.48986 -1.601,-3.01908 -2.56881,-5.62048 -0.9678,-2.6014 -2.07835,-4.53284 -2.46789,-4.29209 -0.38954,0.24075 -2.01938,4.32639 -3.62185,9.0792 -2.62125,7.77439 -3.28307,8.83076 -6.59575,10.52781 -4.96016,2.54103 -5.40927,3.62609 -1.82658,4.41298 1.6548,0.36346 3.00873,0.77126 3.00873,0.90622 0,0.13497 -1.125,3.55303 -2.5,7.5957 -1.375,4.042668 -2.5,7.596917 -2.5,7.898333 0,0.301415 3.09661,-2.524855 6.88136,-6.280601 l 6.88136,-6.828632 z"
     id="path1" /></g></svg>
