<?xml version="1.0" encoding="UTF-8" standalone="no"?>
<!-- Generator: Adobe Illustrator 16.0.0, SVG Export Plug-In . SVG Version: 6.00 Build 0)  -->

<svg
   version="1.1"
   id="Layer_1"
   x="0px"
   y="0px"
   width="280px"
   height="280px"
   viewBox="0 0 280 280"
   enable-background="new 0 0 280 280"
   xml:space="preserve"
   sodipodi:docname="bobross.svg"
   inkscape:version="1.4 (e7c3feb100, 2024-10-09)"
   xmlns:inkscape="http://www.inkscape.org/namespaces/inkscape"
   xmlns:sodipodi="http://sodipodi.sourceforge.net/DTD/sodipodi-0.dtd"
   xmlns="http://www.w3.org/2000/svg"
   xmlns:svg="http://www.w3.org/2000/svg"><defs
   id="defs10478" /><sodipodi:namedview
   id="namedview10478"
   pagecolor="#ffffff"
   bordercolor="#000000"
   borderopacity="0.25"
   inkscape:showpageshadow="2"
   inkscape:pageopacity="0.0"
   inkscape:pagecheckerboard="0"
   inkscape:deskcolor="#d1d1d1"
   inkscape:zoom="2.2285714"
   inkscape:cx="155.48077"
   inkscape:cy="140"
   inkscape:window-width="1600"
   inkscape:window-height="826"
   inkscape:window-x="0"
   inkscape:window-y="0"
   inkscape:window-maximized="1"
   inkscape:current-layer="g10478" />

<g
   id="g10478">
	<path
   fill-rule="evenodd"
   clip-rule="evenodd"
   fill="#e62527"
   d="m 88.432805,139.47197 c -2.06798,0.76587 -3.248371,1.96923 -3.997023,4.11873 -1.405446,4.03607 -3.831677,7.36711 -6.357805,10.53855 -6.644864,8.34656 -14.729621,14.53557 -23.168036,20.13898 -2.419342,1.60639 -5.109668,2.62373 -7.791956,3.49983 -2.018606,0.65909 -3.337933,1.64658 -3.198996,4.33576 0.08841,1.6971 -0.781952,2.79137 -2.000234,3.60892 -1.366406,0.91859 -2.264329,0.64301 -2.921122,-1.1115 -1.604092,-4.28179 -1.640835,-4.25767 -5.742348,-4.16122 -1.747621,0.0413 -3.4252,-0.45011 -5.093592,-0.97601 -1.199911,-0.37777 -1.863594,-1.41577 -2.100131,-2.71788 -1.372147,-7.57494 -1.013896,-9.64062 4.387425,-14.69403 3.008388,-2.81433 6.765429,-4.23585 10.000021,-6.67471 1.269953,-0.95649 2.06798,-2.04617 2.28959,-3.7203 1.468599,-11.10578 2.892416,-22.21729 3.584805,-33.4356 0.230796,-3.73522 0.591344,-7.45896 0.856587,-11.19189 0.171088,-2.4182 0.03445,-2.50317 -1.973824,-1.58228 -4.087734,1.87278 -8.355742,3.23919 -12.123117,6.00415 -1.098866,0.80606 -2.437713,0.99323 -3.412569,-0.26984 -1.052936,-1.36296 -1.609832,-2.97279 -0.811806,-4.83868 0.290505,-0.67976 0.67861,-1.19532 1.279139,-1.48467 5.279608,-2.5491 10.539694,-5.157898 15.85949,-7.58987 1.214838,-0.555748 1.930191,-1.104606 2.177063,-2.696067 0.483409,-3.132398 1.274546,-6.199347 1.779772,-9.328301 0.292801,-1.811922 1.205651,-2.078314 2.523831,-1.974972 1.364109,0.106786 2.337816,0.817546 2.33552,2.430823 -0.0011,2.13343 0.187163,4.293269 -0.241131,6.408327 -0.265243,1.31129 -0.01722,1.671838 1.240099,1.323921 3.618104,-1.003562 7.244246,-2.092093 11.009325,-2.010568 2.973941,0.06315 6.135045,-0.118269 7.858553,3.492946 1.788958,3.745558 0.964522,7.405001 -0.733725,10.901391 -1.581126,3.2587 -3.899423,5.75268 -6.391103,8.06294 -0.392698,0.36284 -1.144795,0.64531 -0.899072,1.402 0.256058,0.79343 0.951891,0.30084 1.466302,0.33529 1.514529,0.0999 3.032502,0.16419 4.537844,0.36399 6.323358,0.84051 10.967988,5.54255 12.556004,12.64786 0.750949,3.36319 0.744059,3.3276 3.649106,2.56746 1.140202,-0.29854 2.317148,-0.41796 3.480315,-0.58445 0.336434,-0.0482 0.893331,-0.12745 0.996672,0.0632 1.444491,2.64784 2.287291,0.0413 3.250671,-0.54541 1.40429,-0.8543 2.62258,-2.72707 4.239301,-0.40648 0.14238,0.20438 0.62349,0.38925 0.73602,0.28476 1.64658,-1.54208 4.11759,-1.48697 5.36802,-3.81445 4.65497,-8.65888 8.35115,-17.74605 9.54417,-27.974569 0.17339,-1.484674 0.10105,-3.232296 1.94282,-3.343675 1.52257,-0.09301 3.08303,1.708581 3.24148,3.70537 0.21587,2.744294 -0.54541,5.357684 -1.01963,7.989454 -1.0116,5.60111 -2.47561,11.0874 -3.27134,16.74708 -0.0987,0.70387 -0.42599,1.59261 0.062,2.04042 0.56608,0.52015 1.11379,-0.33873 1.65002,-0.62235 2.31829,-1.22402 4.57459,-2.86141 7.27869,-2.04271 3.32415,1.007 5.46677,4.74567 5.48629,9.11358 0.0276,6.37732 -2.44805,11.48928 -6.54611,15.30833 -1.94512,1.81192 -4.89036,1.90034 -7.44634,2.45494 -0.45241,0.0976 -0.84396,-0.0207 -1.23666,0.44437 -1.2998,1.54323 -2.93949,1.82455 -4.50454,0.85773 -1.58572,-0.9806 -2.48824,-2.81089 -1.88082,-4.84902 1.61787,-5.42658 1.08279,-11.21371 2.30108,-16.69081 0.11597,-0.52015 0.0161,-1.10346 0.0161,-2.13917 -1.65232,2.41704 -3.75015,3.77426 -2.85108,7.45552 0.60972,2.49972 -0.30199,5.47825 -1.94971,7.49226 -2.15065,2.62718 -3.43439,5.92263 -5.50696,8.60032 -1.65346,2.13688 -3.212771,4.46551 -5.227931,6.04204 -3.680114,2.87749 -7.067421,2.82008 -9.360456,-2.28615 -1.919857,-4.27834 -1.793551,-8.1835 0.01493,-12.27698 0.249168,-0.56493 0.429442,-1.1735 0.621198,-1.77058 0.06315,-0.20439 0.0643,-0.43289 0.138937,-0.97601 z M 51.02889,122.56299 c -0.319211,0.72568 -0.504077,0.9783 -0.540821,1.25502 -0.685499,5.10852 -1.364109,10.21589 -2.017457,15.33015 -0.361696,2.83386 -0.683203,5.67346 -0.998969,8.5142 -0.0999,0.90367 -0.222759,1.88771 1.097717,1.35378 2.397525,-0.97141 4.900688,-1.67299 7.19602,-2.89586 4.496507,-2.39638 9.282371,-3.85694 13.863848,-5.99037 3.650255,-1.6994 7.396962,-3.28741 11.202229,-4.58722 0.819843,-0.27902 1.481229,-0.80836 1.666096,-1.90608 0.703871,-4.15777 -1.59835,-9.21807 -5.14756,-10.30775 -3.448164,-1.05867 -7.037562,-1.68676 -10.640739,-0.88759 -3.318413,0.73488 -6.617306,1.58687 -9.923089,2.39179 -2.209214,0.53737 -4.445985,1.21598 -5.757275,-2.27007 z m 28.456829,19.62456 c -1.627056,0.31003 -2.992313,1.54668 -4.441392,0.2951 -0.153864,-0.13434 -0.907109,0.23998 -1.050639,0.57068 -1.184984,2.72133 -3.171439,2.75462 -5.354243,2.28959 -0.491446,-0.10564 -1.135609,0.0195 -1.156277,0.6189 -0.05397,1.53864 -1.276843,1.62246 -1.917561,1.70858 -2.129985,0.28821 -3.7513,1.64313 -5.232529,3.10943 -1.129868,1.11954 -3.079579,0.16305 -3.715704,2.20577 -0.01837,0.0586 -0.460445,0.0666 -0.566083,-0.0586 -0.775062,-0.91974 -1.391666,-0.13319 -2.031236,0.22391 -1.054084,0.59019 -2.117354,1.1712 -3.128954,1.84981 -2.462974,1.65232 -4.925949,3.35286 -5.325536,7.06512 -0.229648,2.12884 -0.35251,4.2726 -0.555748,6.40603 -0.176829,1.86819 0.298542,2.41246 1.970379,1.75796 8.571611,-3.35631 16.540396,-7.99864 23.429835,-14.82493 3.660589,-3.62843 6.701128,-7.93433 9.075688,-13.21739 z M 51.156345,117.76334 c 3.440126,-1.96004 6.813655,-2.88093 9.64866,-5.21071 3.838566,-3.15421 7.36481,-6.71261 10.062026,-11.19993 1.215986,-2.022051 0.866921,-2.665065 -1.244692,-2.62947 -5.346205,0.09071 -10.437501,1.7924 -15.524204,3.47457 -0.54771,0.18028 -1.058677,0.46734 -1.151684,1.20795 -0.582158,4.62167 -1.152833,9.24448 -1.790106,14.35759 z m 74.039655,10.9301 c -3.19555,-0.0804 -9.56024,5.84684 -10.32267,9.59125 -0.33529,1.65002 0.5213,1.2068 1.28488,1.04145 0.50637,-0.10908 1.14135,-0.53393 1.46859,0.25147 0.27903,0.67057 -0.18257,1.19072 -0.54311,1.67528 -0.26869,0.36169 -0.55575,0.70961 -0.80147,1.09197 -0.26869,0.41796 -0.79114,0.8187 -0.35596,1.41923 0.31462,0.43518 0.74521,0.2239 1.13676,0.0276 4.66645,-2.32748 8.26273,-5.98348 10.33416,-11.40317 0.79114,-2.06798 -0.24228,-3.64566 -2.20118,-3.69504 z m -34.095834,21.99109 c 3.855793,-0.64876 7.086933,-2.34011 9.902424,-5.01666 1.96923,-1.87163 3.88335,-3.83857 4.77897,-6.74361 0.19176,-0.6189 0.35825,-1.34919 -0.0987,-1.79585 -0.59708,-0.58331 -1.00011,0.24802 -1.37788,0.58905 -2.41475,2.17591 -4.547031,4.73419 -7.726511,5.67001 -1.34114,0.39499 -2.37226,0.75669 -3.297746,-0.56035 -0.714205,-1.01848 -1.194169,-0.61316 -1.497304,0.26869 -0.656794,1.91297 -1.269954,3.85235 -1.799292,5.81699 -0.345621,1.28258 0.414514,1.68332 1.116089,1.77173 z m -58.582051,22.76041 c 2.23103,0.16994 3.884495,-0.74521 5.62982,-1.14594 1.12183,-0.2595 1.635094,-0.99208 1.81996,-2.22185 0.365141,-2.42278 0.758987,-4.83983 1.164315,-7.25572 0.08038,-0.47882 0.226204,-0.95075 -0.184866,-1.28833 -0.357103,-0.2928 -0.672869,0.0459 -0.927778,0.25376 -2.959014,2.43771 -6.237239,4.38972 -8.74844,7.50375 -0.714205,0.88529 -1.790106,1.81307 -1.152833,3.27478 0.579862,1.33311 1.839481,0.71535 2.399822,0.87955 z"
   id="path10475"
   style="stroke-width:1.14824" />
	<path
   fill-rule="evenodd"
   clip-rule="evenodd"
   fill="#e62527"
   d="m 142.33578,140.24358 c -0.44896,0.17339 -0.47537,0.79344 -0.48111,1.15399 -0.11023,7.07315 -1.90608,13.96489 -1.51683,21.11728 0.17109,3.13584 -0.33184,6.3555 -0.76473,9.49249 -0.3215,2.34012 -2.0829,1.62936 -3.36434,1.5019 -1.35607,-0.13434 -2.69607,-0.55919 -2.35848,-2.74429 0.53048,-3.44702 1.06671,-6.89518 1.60983,-10.3399 1.08738,-6.90437 1.29177,-13.92241 2.03009,-20.87041 0.73832,-6.95259 1.4663,-13.90518 2.20232,-20.85893 0.0976,-0.92777 0.66254,-2.15295 -0.0677,-2.70295 -0.94385,-0.71191 -2.01516,0.18946 -2.8373,0.80032 -1.02193,0.75899 -1.77517,1.46516 -3.07154,0.44437 -2.00138,-1.57883 -2.12539,-3.83971 0.0368,-5.49892 1.6615,-1.2734 3.46538,-2.30452 5.22219,-3.40568 1.63165,-1.02423 2.35619,-2.36882 1.98875,-4.6676 -0.49833,-3.12665 1.19991,-4.831789 3.7513,-4.091174 0.79688,0.231945 1.48927,0.628084 1.4686,1.698244 -0.039,2.10243 0.87726,1.90264 2.1231,1.34689 4.89035,-2.17707 9.57632,-4.979918 14.63431,-6.624198 3.3655,-1.093124 6.76429,-2.298776 10.3399,-1.795847 3.67667,0.516708 6.55645,2.379153 7.84363,6.674715 1.2424,4.13826 0.16994,7.76325 -2.22644,10.79575 -1.99219,2.52039 -4.33919,4.66416 -6.51741,6.99164 -4.83294,5.16708 -10.86579,8.22484 -16.28893,12.35506 -1.42152,1.08279 -2.79941,2.09783 -3.64796,3.97176 -0.51555,1.14365 -1.38018,2.19084 -2.43771,2.8706 -1.17924,0.76128 -1.3331,1.66495 -0.38007,2.84419 4.65382,5.75957 8.9735,11.92677 13.82366,17.40387 3.51247,3.96487 7.26607,7.85167 11.29524,11.24012 2.19084,1.84293 3.90287,4.24045 5.79287,6.43244 0.81755,0.9496 0.023,3.18178 -1.36411,4.41269 -1.21598,1.07934 -1.73499,0.23194 -2.43656,-0.85659 -2.84075,-4.41154 -6.15572,-8.33163 -9.56255,-12.1679 -8.08935,-9.10554 -16.96294,-17.2546 -24.58726,-26.92163 -0.0287,-0.0367 -0.1263,-0.002 -0.25146,-0.002 z m 0.0528,-4.52751 c 0.16764,0.0723 0.33643,0.14468 0.50408,0.21587 0.75324,-0.76817 1.42266,-1.70398 2.27466,-2.2781 4.27719,-2.87864 8.60491,-5.64934 12.59619,-9.06536 4.64808,-3.97635 9.69,-7.35792 13.87303,-12.0347 2.46757,-2.76037 4.99829,-5.52992 6.08682,-9.47298 0.79344,-2.87404 -0.20553,-4.596404 -2.81663,-4.925948 -1.38018,-0.172236 -2.76955,-0.04248 -4.10266,0.4237 -7.0789,2.472158 -13.76969,5.915728 -20.29629,9.965578 -4.30245,2.6708 -6.54956,6.06959 -6.67816,11.80964 -0.11712,5.13264 -0.93352,10.2423 -1.44104,15.3623 z"
   id="path10476"
   style="stroke-width:1.14824" />
	<path
   fill-rule="evenodd"
   clip-rule="evenodd"
   fill="#e62527"
   d="m 166.09171,141.33097 c 0.40533,-6.59549 4.57574,-9.8829 8.83227,-12.98085 1.35951,-0.98864 2.89815,-2.59503 4.51602,-2.01287 1.81537,0.65335 3.83742,0.52015 5.46677,1.71088 1.33426,0.97715 2.32749,0.62579 3.56988,-0.25376 2.70411,-1.91527 5.19119,-4.12218 7.51064,-6.60812 0.70157,-0.7521 0.95993,-1.75566 1.25502,-2.69607 0.65795,-2.0875 1.9589,-1.56964 3.02791,-0.92548 1.15973,0.69813 1.86474,1.97612 1.04605,3.5561 -0.42026,0.8141 -1.14135,1.4973 -1.05294,2.51579 0.14583,1.65806 0.23195,3.59284 1.43301,4.57229 0.9783,0.79918 2.02434,-0.6166 2.94753,-1.18383 3.46424,-2.13228 6.89403,-4.34035 9.91735,-7.28214 0.8761,-0.8497 1.53519,-1.7947 1.72006,-3.14847 0.19979,-1.45023 0.42255,-2.99117 2.19773,-2.72363 1.20336,0.18257 3.31267,2.96016 2.94868,4.14285 -0.73372,2.38949 0.73717,4.29212 0.79803,6.49215 0.031,1.1402 1.03686,1.13101 1.80159,0.9117 2.13457,-0.61086 4.31853,-1.08968 6.36928,-1.97382 3.93272,-1.69595 7.86889,-3.35516 11.92103,-4.62511 2.32863,-0.72914 3.92009,0.031 4.94432,2.49397 0.30888,0.74636 0.93007,1.55242 0.27902,2.40557 -0.66712,0.87381 -1.70399,1.61327 -2.56861,1.18268 -2.77185,-1.37788 -5.26009,0.29395 -7.79655,0.81525 -1.81996,0.37318 -3.58021,1.41463 -5.26812,2.58239 -2.04043,1.40775 -4.39661,2.24137 -6.66094,3.17144 -1.70514,0.69813 -2.2827,1.62936 -1.44104,3.70882 0.8141,2.01401 1.19646,4.23586 1.1069,6.49559 -0.0723,1.88311 -0.70387,3.75015 -2.39064,3.95224 -2.58239,0.31118 -5.20267,0.0356 -7.15583,-2.5089 -1.41004,-1.83833 -3.12206,-3.35745 -4.14974,-5.59652 -0.69009,-1.49386 -0.92892,-2.98657 -0.52704,-4.59067 0.2595,-1.03226 0.64187,-1.77403 1.82685,-1.83948 1.78092,-0.0965 3.06121,-1.72121 4.63315,-2.51694 0.75324,-0.38236 0.37318,-4.62511 -0.36629,-5.05225 -0.46618,-0.26984 -0.7521,0.14238 -1.07705,0.43173 -3.70766,3.31268 -7.43026,6.60583 -11.12529,9.93458 -0.94845,0.85314 -1.00701,2.01171 -0.5925,3.24033 0.47308,1.40774 1.00242,2.79482 1.41119,4.22667 0.43978,1.53749 1.16432,3.01643 -0.488,4.46206 -1.62017,1.41578 -3.31267,2.19314 -5.17742,1.44678 -3.72029,-1.48697 -6.8125,-3.99243 -8.94364,-7.98026 -1.4307,-2.67885 -1.18268,-4.10496 1.309,-5.30832 0.88988,-0.42944 1.78207,-0.92433 2.71444,-1.15053 2.97623,-0.7188 3.20473,-1.1138 2.50201,-4.34839 -0.3261,-1.50075 -0.96796,-1.41348 -1.72236,-0.57412 -1.79699,2.00024 -3.95454,3.44931 -5.87669,5.25435 -0.53738,0.50293 -1.19302,0.99552 -1.23206,1.84292 -0.2641,5.76646 -3.69274,9.43279 -7.16043,12.40788 -3.33908,2.86601 -7.51867,4.40924 -11.88887,2.02779 -2.31256,-1.26191 -3.53084,-4.09462 -3.34368,-8.10427 z m 18.79439,-5.25894 c -2.30681,1.65691 -4.3013,2.76381 -6.3911,3.63533 -2.38834,0.99552 -4.22437,0.47077 -5.48514,-2.07602 -0.86577,-1.74647 -1.28373,-1.0116 -1.93134,0.0195 -0.44552,0.70617 -0.89218,1.38363 -1.09427,2.26088 -0.90022,3.90517 0.0471,5.09474 3.54806,4.11415 2.45608,-0.68665 4.92824,-1.46171 7.24424,-2.60077 1.77863,-0.8761 3.26789,-2.44115 4.10955,-5.35309 z m 34.11995,2.29189 c 0.42944,-0.0402 1.06672,0.30772 1.12413,-0.75899 0.0907,-1.62476 -1.14135,-4.26112 -2.00368,-3.93732 -1.29406,0.48801 -3.06924,0.10449 -3.75704,1.85671 -0.37203,0.9473 2.47905,2.68803 4.63659,2.8396 z m -42.09217,-4.2749 c 2.31255,-0.26639 4.03032,-1.13561 5.97314,-2.29074 -2.38604,-0.39729 -4.37824,-0.48685 -5.97314,2.29074 z m 20.01382,4.60214 c 0.72339,0.70043 1.57883,0.48456 2.36996,0.5592 0.58446,0.0551 1.17121,-0.0482 1.04031,-0.98749 -0.10679,-0.79343 -0.58675,-1.10805 -1.19532,-0.73832 -0.70846,0.43059 -1.60179,0.38696 -2.21495,1.16661 z"
   id="path10477"
   style="stroke-width:1.14824" />
	
</g>
</svg>
