<?xml version="1.0" encoding="UTF-8" standalone="no"?>
<!-- Generator: Adobe Illustrator 16.0.0, SVG Export Plug-In . SVG Version: 6.00 Build 0)  -->

<svg
   version="1.1"
   id="Layer_1"
   x="0px"
   y="0px"
   width="280px"
   height="280px"
   viewBox="0 0 280 280"
   enable-background="new 0 0 280 280"
   xml:space="preserve"
   sodipodi:docname="dajto.svg"
   inkscape:version="1.4 (e7c3feb100, 2024-10-09)"
   xmlns:inkscape="http://www.inkscape.org/namespaces/inkscape"
   xmlns:sodipodi="http://sodipodi.sourceforge.net/DTD/sodipodi-0.dtd"
   xmlns="http://www.w3.org/2000/svg"
   xmlns:svg="http://www.w3.org/2000/svg"><defs
   id="defs10478" /><sodipodi:namedview
   id="namedview10478"
   pagecolor="#ffffff"
   bordercolor="#000000"
   borderopacity="0.25"
   inkscape:showpageshadow="2"
   inkscape:pageopacity="0.0"
   inkscape:pagecheckerboard="0"
   inkscape:deskcolor="#d1d1d1"
   inkscape:zoom="0.93338095"
   inkscape:cx="-58.925565"
   inkscape:cy="74.996174"
   inkscape:window-width="1600"
   inkscape:window-height="826"
   inkscape:window-x="0"
   inkscape:window-y="0"
   inkscape:window-maximized="1"
   inkscape:current-layer="g10478" />

<g
   id="g10478">
	
	
	
	
<g
   id="g7"
   transform="matrix(0.4407431,0,0,0.4407431,24.277186,109.85572)">
	<g
   id="g6">
		<g
   id="g4">
			<path
   class="st0"
   d="m 305.6,37.7 v 5.8 c -5.1,-5.1 -11.9,-8.1 -19.9,-8.1 -18.6,0 -32.8,15.7 -32.8,36.2 0,20.5 14.2,36.2 32.8,36.2 8,0 14.8,-3 19.9,-8 v 6.7 H 327 V 37.7 Z M 291,87.4 c -8.3,0 -14.6,-6.9 -14.6,-16.1 0,-9.2 6.3,-16.1 14.6,-16.1 8.3,0 14.6,6.9 14.6,16.1 0,9.2 -6.2,16.1 -14.6,16.1 z"
   id="path1"
   style="fill:#06e82f" />
			<path
   class="st0"
   d="m 463.1,35.4 c -20.9,0 -36.9,15.7 -36.9,36.2 0,20.5 15.9,36.2 36.9,36.2 21,0 36.9,-15.7 36.9,-36.2 0,-20.5 -15.9,-36.2 -36.9,-36.2 z m 0.1,52.2 c -8,0 -14.1,-6.9 -14.1,-16.2 0,-9.3 6.1,-16.2 14.1,-16.2 8,0 14.1,6.9 14.1,16.2 0,9.3 -6.1,16.2 -14.1,16.2 z"
   id="path2"
   style="fill:#06e82f" />
			<path
   class="st0"
   d="m 219.2,7.7 v 34.7 c -4.9,-4.3 -11.1,-7 -18.4,-7 -18.5,0 -32.5,15.9 -32.5,36.3 0,20.4 14.1,36 32.6,36 8,0 14.8,-2.9 19.8,-8 v 6.7 H 242 V 7.7 Z m -13.6,79.8 c -8.3,0 -14.6,-6.9 -14.6,-16.1 0,-9.2 6.3,-16.1 14.6,-16.1 8.3,0 14.6,6.9 14.6,16.1 0,9.2 -6.3,16.1 -14.6,16.1 z"
   id="path3"
   style="fill:#06e82f" />
			<polygon
   class="st0"
   points="417.1,105.7 417.1,86 406,86 406,57.3 419.2,57.3 419.2,37.7 406,37.7 406,20.8 383.2,20.8 383.2,37.7 377.4,37.7 377.4,57.3 383.2,57.3 383.2,105.7 "
   id="polygon3"
   style="fill:#06e82f" />
			<circle
   class="st0"
   cx="353.89999"
   cy="17.700001"
   r="13.2"
   id="circle3"
   style="fill:#06e82f" />
			<polygon
   class="st0"
   points="330.6,135.7 365.1,135.6 365.1,37.7 342.4,37.7 342.4,115.8 330.6,115.8 "
   id="polygon4"
   style="fill:#06e82f" />
		</g>
		<g
   id="g5">
			<path
   class="st0"
   d="m 127.6,93.9 c -10.4,23.3 -33.8,39.5 -60.9,39.5 -27.6,0 -51.4,-16.8 -61.5,-40.8 11.1,-16 24.5,-35.7 30,-43.6 8.1,14.3 16.4,28.4 24.7,42.7 2.2,4 8.4,5 11.5,1.6 4.7,-5.5 9.3,-11.2 15.7,-14.6 6.6,-3.7 14.9,-3.9 21.7,-0.6 7.6,3.4 13.6,9.3 18.8,15.8 z"
   id="path4"
   style="fill:#06e82f" />
			<path
   class="st0"
   d="m 133.4,66.7 c 0,3.9 -0.3,7.7 -1,11.4 C 123.8,69.5 112.9,62.2 100.5,61.4 88,60.3 76.2,66.6 67.6,75.3 59.2,60.5 50.7,45.7 42,31 39.5,26.8 32.7,26.6 29.9,30.7 24.7,38.1 11.7,56.9 0.3,73.3 0.1,71.2 0,68.9 0,66.7 -0.1,29.8 29.7,0 66.7,0 c 36.8,0 66.7,29.8 66.7,66.7 z"
   id="path5"
   style="fill:#06e82f" />
		</g>
	</g>
</g></g>
</svg>
