<?xml version="1.0" encoding="UTF-8" standalone="no"?>
<!-- Generator: Adobe Illustrator 16.0.0, SVG Export Plug-In . SVG Version: 6.00 Build 0)  -->

<svg
   version="1.1"
   id="Layer_1"
   x="0px"
   y="0px"
   width="280px"
   height="280px"
   viewBox="0 0 280 280"
   enable-background="new 0 0 280 280"
   xml:space="preserve"
   sodipodi:docname="doma.svg"
   inkscape:version="1.4 (e7c3feb100, 2024-10-09)"
   xmlns:inkscape="http://www.inkscape.org/namespaces/inkscape"
   xmlns:sodipodi="http://sodipodi.sourceforge.net/DTD/sodipodi-0.dtd"
   xmlns="http://www.w3.org/2000/svg"
   xmlns:svg="http://www.w3.org/2000/svg"><defs
   id="defs10478" /><sodipodi:namedview
   id="namedview10478"
   pagecolor="#ffffff"
   bordercolor="#000000"
   borderopacity="0.25"
   inkscape:showpageshadow="2"
   inkscape:pageopacity="0.0"
   inkscape:pagecheckerboard="0"
   inkscape:deskcolor="#d1d1d1"
   inkscape:zoom="0.93338095"
   inkscape:cx="-58.925565"
   inkscape:cy="74.996174"
   inkscape:window-width="1600"
   inkscape:window-height="826"
   inkscape:window-x="0"
   inkscape:window-y="0"
   inkscape:window-maximized="1"
   inkscape:current-layer="g10478" />

<g
   id="g10478">
	
	
	
	
<g
   id="g8"
   transform="matrix(0.44692688,0,0,0.44692688,26.800439,113.92326)">
	<g
   id="g7">
		<g
   id="g4">
			<path
   class="st0"
   d="M 234.1,95.1 205.4,101.8 203,88 c -5.3,7.9 -12.4,13.4 -21.7,13.4 -14,0 -22.4,-10.9 -22.4,-30.2 0,-23.5 13,-36 34.7,-36 2.7,0 6,0.3 9.1,0.6 V 20.2 l -8.8,-6.4 0.1,-0.3 31.9,-9.7 v 84.7 l 8.2,6.4 z m -38.9,-5.3 c 3.1,0 5.6,-1.2 7.5,-3.1 V 86.4 44.1 c -1.7,-4.8 -4.9,-6.9 -8.4,-6.9 -6.7,0 -11.8,9.3 -11.8,28.9 0,18 4.3,23.7 12.7,23.7 z"
   id="path1"
   style="fill:#faba4d" />
			<path
   class="st0"
   d="m 237.6,68.8 c 0,-21.9 13,-33.8 35.1,-33.8 22.7,0 32.9,10.8 32.9,32.5 0,21.8 -12.6,33.8 -34.9,33.8 -22.6,0.1 -33.1,-10.8 -33.1,-32.5 z m 33.8,30 c 5.8,0 10.6,-9.1 10.6,-30.7 0,-21.8 -3.9,-30.6 -10,-30.6 -6.1,0 -10.8,8.9 -10.8,30.6 0.1,21.9 4.1,30.7 10.2,30.7 z"
   id="path2"
   style="fill:#faba4d" />
			<path
   class="st0"
   d="m 347.9,99.3 v 0.3 H 311 v -0.3 l 6.9,-6.6 V 49.8 l -8.3,-6.5 V 43 l 31.1,-8.9 -0.3,14.9 c 5.2,-7.9 12.2,-14 22.6,-14 10.4,0 16.3,4.7 18.3,14.1 5.3,-7.9 12.3,-14.1 22.7,-14.1 13.1,0 19.2,7.4 19.2,22.4 v 35.3 l 6.7,6.6 v 0.3 H 393 v -0.3 l 6.9,-6.6 V 60 c 0,-10.2 -3.2,-13.5 -9.6,-13.5 -3.6,0 -6.6,1.3 -8.8,3.8 0.4,2.1 0.5,4.5 0.5,7.1 v 35.3 l 6.9,6.6 v 0.3 h -36.8 v -0.3 l 6.7,-6.6 V 60 c 0,-10.2 -3,-13.5 -9.6,-13.5 -3.1,0 -6,1 -8.2,3.2 v 42.9 z"
   id="path3"
   style="fill:#faba4d" />
			<path
   class="st0"
   d="m 468.6,87 c -3.8,8.7 -9.3,14.4 -19.6,14.4 -10.4,0 -15.8,-6.6 -15.8,-16.6 0,-12.6 7.6,-18 24.8,-19.2 l 9.7,-0.6 v -4.1 c 0,-7.8 -3.1,-10.5 -11,-10.5 -7.1,0 -14.7,2.7 -19.4,7 l -0.1,-0.3 c 3.2,-13.5 13.6,-22 28.1,-22 17.1,0 25.7,7.8 25.7,24 v 24.2 c 0,5.8 2.7,7.9 9.1,7.9 v 0.4 c -2.7,5.7 -8.6,9.9 -16.7,9.9 -10.5,0 -14.7,-5.2 -14.7,-13.1 V 87 Z m -7.4,2.1 c 2.7,0 4.9,-1.2 6.5,-2.9 V 66.5 l -3.5,0.6 c -6.6,1.2 -9.3,5.6 -9.3,13.5 0,5.9 2.3,8.5 6.3,8.5 z"
   id="path4"
   style="fill:#faba4d" />
		</g>
		<g
   id="g6">
			<path
   class="st0"
   d="m 120.7,88.8 c -9.8,22 -31.9,37.4 -57.6,37.4 C 37,126.2 14.5,110.3 5,87.6 15.5,72.4 28.2,53.8 33.4,46.3 c 7.7,13.5 15.5,26.9 23.3,40.4 2.1,3.8 7.9,4.7 10.9,1.5 4.4,-5.2 8.8,-10.6 14.8,-13.8 6.2,-3.5 14.1,-3.7 20.5,-0.6 7.2,3.3 12.9,8.9 17.8,15 z"
   id="path5"
   style="fill:#faba4d" />
			<path
   class="st0"
   d="m 126.2,63.1 c 0,3.7 -0.3,7.3 -0.9,10.8 C 117.2,65.8 106.9,58.9 95.2,58.1 83.4,57.1 72.2,63 64.1,71.2 56,57.2 48,43.2 39.8,29.3 37.4,25.3 31,25.1 28.4,29 23.5,36 11.2,53.8 0.4,69.3 0.2,67.3 0.1,65.2 0.1,63.1 0,28.2 28.2,0 63.1,0 c 34.8,0 63.1,28.2 63.1,63.1 z"
   id="path6"
   style="fill:#faba4d" />
		</g>
	</g>
</g></g>
</svg>
