<?xml version="1.0" encoding="UTF-8" standalone="no"?>
<!-- Generator: Adobe Illustrator 16.0.0, SVG Export Plug-In . SVG Version: 6.00 Build 0)  -->

<svg
   version="1.1"
   id="Layer_1"
   x="0px"
   y="0px"
   width="280px"
   height="280px"
   viewBox="0 0 280 280"
   enable-background="new 0 0 280 280"
   xml:space="preserve"
   sodipodi:docname="joj.svg"
   inkscape:version="1.4 (e7c3feb100, 2024-10-09)"
   xmlns:inkscape="http://www.inkscape.org/namespaces/inkscape"
   xmlns:sodipodi="http://sodipodi.sourceforge.net/DTD/sodipodi-0.dtd"
   xmlns="http://www.w3.org/2000/svg"
   xmlns:svg="http://www.w3.org/2000/svg"><defs
   id="defs10478" /><sodipodi:namedview
   id="namedview10478"
   pagecolor="#ffffff"
   bordercolor="#000000"
   borderopacity="0.25"
   inkscape:showpageshadow="2"
   inkscape:pageopacity="0.0"
   inkscape:pagecheckerboard="0"
   inkscape:deskcolor="#d1d1d1"
   inkscape:zoom="2.2285714"
   inkscape:cx="58.108975"
   inkscape:cy="106.34616"
   inkscape:window-width="1600"
   inkscape:window-height="826"
   inkscape:window-x="0"
   inkscape:window-y="0"
   inkscape:window-maximized="1"
   inkscape:current-layer="g10478" />

<g
   id="g10478">
	
	
	
	
<path
   style="fill:#dd354e;stroke-width:1.24152;fill-opacity:1"
   d="m 141.90766,244.64777 c -0.51213,-0.04 -2.31389,-0.20198 -4.00391,-0.36016 -45.691631,-4.2764 -84.24313,-36.3835 -96.837788,-80.65006 -4.982714,-17.51277 -5.563899,-36.32764 -1.666166,-53.93922 8.749622,-39.534476 39.406769,-71.00866 78.750274,-80.849038 7.26811,-1.817858 14.21957,-2.802024 22.36087,-3.165783 l 2.14163,-0.09568 -2.42097,0.527899 c -16.22397,3.537678 -30.25024,10.506143 -42.739427,21.233589 -2.168177,1.862332 -7.273958,6.91966 -9.22646,9.138904 -3.239999,3.682633 -6.928075,8.691012 -9.544126,12.96085 -8.116734,13.247879 -12.715761,27.662397 -13.838461,43.373239 -0.409464,5.72997 -0.04431,14.10931 0.859672,19.72702 4.294439,26.68745 21.500289,49.9136 45.809622,61.83832 16.2571,7.97479 34.54277,10.51016 51.49217,7.13959 25.71262,-5.11324 47.01928,-24.06908 55.2044,-49.11358 1.56302,-4.78242 2.75174,-10.41643 3.30432,-15.661 0.3093,-2.93551 0.3067,-10.6251 -0.004,-12.84976 -1.43575,-10.26909 -5.68655,-19.09298 -12.68311,-26.327832 -7.34838,-7.598646 -16.5627,-12.222135 -27.38466,-13.740853 -2.64982,-0.371866 -9.41345,-0.314291 -12.19796,0.103841 -19.38456,2.910803 -34.7619,17.355384 -38.72802,36.378834 -0.88965,4.26722 -1.13521,10.60124 -0.56208,14.49901 1.57542,10.71443 7.3908,19.83007 16.47711,25.82794 5.13269,3.38809 11.11075,5.39403 17.62542,5.91423 1.41778,0.11322 2.60278,0.23083 2.63333,0.26139 0.0832,0.0832 -3.90903,1.16597 -5.82604,1.58026 -5.29517,1.14433 -11.95536,1.2505 -17.69171,0.28201 -14.47737,-2.44419 -27.4169,-11.95302 -34.07287,-25.03861 -4.77868,-9.39486 -6.22483,-19.08037 -4.65748,-31.19326 2.89357,-22.362225 16.28014,-42.246676 36.09914,-53.621745 8.32786,-4.779753 17.66402,-7.802698 28.05079,-9.082523 2.61523,-0.32224 13.12819,-0.32165 16.10876,9.04e-4 20.31109,2.198043 38.05628,10.822834 52.03189,25.289347 13.02949,13.487155 21.09664,30.885137 23.00427,49.611967 0.82067,8.05636 0.41201,17.90001 -1.12415,27.07825 -3.89796,23.28965 -15.13717,44.72942 -32.12811,61.28715 -8.92635,8.69876 -18.04065,15.10507 -29.2871,20.58546 -11.99403,5.84469 -23.96947,9.22061 -38.0101,10.71518 -2.65306,0.28239 -14.94056,0.51931 -17.31924,0.33393 z"
   id="path1" /></g>
</svg>
