<?xml version="1.0" encoding="UTF-8" standalone="no"?>
<!-- Generator: Adobe Illustrator 16.0.0, SVG Export Plug-In . SVG Version: 6.00 Build 0)  -->

<svg
   version="1.1"
   id="Layer_1"
   x="0px"
   y="0px"
   width="280px"
   height="280px"
   viewBox="0 0 280 280"
   enable-background="new 0 0 280 280"
   xml:space="preserve"
   sodipodi:docname="marzika.svg"
   inkscape:version="1.4 (e7c3feb100, 2024-10-09)"
   xmlns:inkscape="http://www.inkscape.org/namespaces/inkscape"
   xmlns:sodipodi="http://sodipodi.sourceforge.net/DTD/sodipodi-0.dtd"
   xmlns="http://www.w3.org/2000/svg"
   xmlns:svg="http://www.w3.org/2000/svg"><defs
   id="defs10478" /><sodipodi:namedview
   id="namedview10478"
   pagecolor="#ffffff"
   bordercolor="#000000"
   borderopacity="0.25"
   inkscape:showpageshadow="2"
   inkscape:pageopacity="0.0"
   inkscape:pagecheckerboard="0"
   inkscape:deskcolor="#d1d1d1"
   inkscape:zoom="0.93338095"
   inkscape:cx="-58.925565"
   inkscape:cy="74.996174"
   inkscape:window-width="1600"
   inkscape:window-height="826"
   inkscape:window-x="0"
   inkscape:window-y="0"
   inkscape:window-maximized="1"
   inkscape:current-layer="g10478" />

<g
   id="g10478">
	
	
	
	
<g
   id="g7"
   transform="matrix(0.15127242,0,0,0.15127242,4.5455824,102.27273)">
	<path
   class="st0"
   d="m 651.44,96.39 c 21.08,0 38.24,6.95 51.44,20.86 13.21,13.9 19.81,31.63 19.81,53.18 v 108.8 H 675.76 V 178.77 c 0,-11.58 -3.19,-21.08 -9.56,-28.5 -6.38,-7.41 -14.55,-11.12 -24.51,-11.12 -9.73,0 -17.79,3.71 -24.16,11.12 -6.38,7.42 -9.56,16.92 -9.56,28.5 V 279.23 H 561.04 V 178.77 c 0,-11.58 -3.13,-21.08 -9.39,-28.5 -6.26,-7.41 -14.37,-11.12 -24.33,-11.12 -9.73,0 -17.79,3.71 -24.16,11.12 -6.38,7.42 -9.56,16.92 -9.56,28.5 V 279.23 H 446.7 V 99.86 h 46.93 v 21.55 c 12.98,-16.68 29.31,-25.03 49.01,-25.03 22.94,0 40.67,9.62 53.18,28.85 13.67,-19.23 32.21,-28.84 55.62,-28.84 z"
   id="path1"
   style="fill:#0e3baf" />
	<path
   class="st0"
   d="m 896.49,121.07 v -21.2 h 46.93 v 179.36 h -46.93 v -21.2 c -15.07,16.46 -34.06,24.68 -57.01,24.68 -24.57,0 -45.07,-8.92 -61.53,-26.77 -16.46,-17.84 -24.68,-39.97 -24.68,-66.39 0,-26.42 8.22,-48.54 24.68,-66.39 16.45,-17.84 36.96,-26.77 61.53,-26.77 22.95,0 41.95,8.22 57.01,24.68 z M 815.5,225.52 c 9.04,9.62 20.27,14.42 33.72,14.42 13.43,0 24.68,-4.81 33.72,-14.42 9.04,-9.61 13.56,-21.61 13.56,-35.98 0,-14.37 -4.52,-26.3 -13.56,-35.8 -9.04,-9.5 -20.28,-14.25 -33.72,-14.25 -13.44,0 -24.68,4.81 -33.72,14.42 -9.04,9.62 -13.56,21.5 -13.56,35.63 0.01,14.37 4.52,26.37 13.56,35.98 z"
   id="path2"
   style="fill:#0e3baf" />
	<path
   class="st0"
   d="m 1025.83,99.86 v 23.29 c 7.88,-10.89 17.84,-18.6 29.89,-23.12 12.05,-4.52 24.45,-4.81 37.19,-0.87 v 44.49 c -18.77,-6.48 -34.65,-6.2 -47.62,0.87 -12.98,7.07 -19.47,18.48 -19.47,34.24 V 279.22 H 978.9 V 99.86 Z"
   id="path3"
   style="fill:#0e3baf" />
	<path
   class="st0"
   d="m 1226.1,175.64 80.64,103.58 h -59.09 l -53.53,-68.48 -22.6,24.68 v 43.8 H 1124.6 V 22 h 46.92 v 150.86 l 64.31,-73 h 59.09 z"
   id="path4"
   style="fill:#0e3baf" />
	<path
   class="st0"
   d="m 1369.68,77.96 h -46.58 l 36.5,-55.61 h 52.14 z m 0.35,201.26 h -46.92 V 99.86 h 46.92 z"
   id="path5"
   style="fill:#0e3baf" />
	<path
   class="st0"
   d="m 1403.6,99.86 h 150.86 v 38.58 l -90.72,99.41 h 90.72 v 41.36 H 1403.6 v -38.24 l 90.72,-99.76 h -90.72 z"
   id="path6"
   style="fill:#0e3baf" />
	<path
   class="st0"
   d="m 1713.89,121.07 v -21.2 h 46.93 v 179.36 h -46.93 v -21.2 c -15.07,16.46 -34.06,24.68 -57.01,24.68 -24.57,0 -45.07,-8.92 -61.53,-26.77 -16.46,-17.84 -24.68,-39.97 -24.68,-66.39 0,-26.42 8.22,-48.54 24.68,-66.39 16.45,-17.84 36.96,-26.77 61.53,-26.77 22.95,0 41.95,8.22 57.01,24.68 z m -80.99,104.45 c 9.04,9.62 20.27,14.42 33.72,14.42 13.44,0 24.68,-4.81 33.72,-14.42 9.04,-9.61 13.56,-21.61 13.56,-35.98 0,-14.37 -4.52,-26.3 -13.56,-35.8 -9.04,-9.5 -20.28,-14.25 -33.72,-14.25 -13.44,0 -24.68,4.81 -33.72,14.42 -9.04,9.62 -13.56,21.5 -13.56,35.63 0.01,14.37 4.52,26.37 13.56,35.98 z"
   id="path7"
   style="fill:#0e3baf" />
</g><g
   id="g8"
   transform="matrix(0.15127242,0,0,0.15127242,4.5455824,102.27273)">
	<ellipse
   class="st1"
   cx="178"
   cy="178.10001"
   rx="178"
   ry="178.10001"
   id="ellipse7"
   style="fill:#fbfb5e" />
	<path
   class="st0"
   d="m 355.9,178.1 c 0,10.5 -0.8,20.6 -2.5,30.5 -22.8,-22.8 -51.9,-42.3 -85,-44.6 -33.3,-2.8 -64.9,13.8 -87.8,37 C 157.8,161.5 135.2,122 112,82.7 105.2,71.4 87.2,70.8 79.8,81.9 65.9,101.7 31.2,151.9 0.7,195.6 0.3,189.7 0,183.9 0,178.1 -0.3,79.6 79.3,0 177.8,0 276,0 355.9,79.6 355.9,178.1 Z m -65.7,30.2 c -18.1,-8.8 -40.4,-8.2 -57.9,1.7 -16.9,9 -29.3,24.2 -41.8,38.9 -8.5,9 -24.8,6.5 -30.8,-4.2 -22,-38.1 -44,-75.9 -65.7,-114 -14.7,21.2 -50.5,73.7 -80.2,116.6 26.8,64.1 90.3,108.9 164,108.9 72.5,0 134.9,-43.5 162.6,-105.5 -13.9,-17.3 -29.9,-33.1 -50.2,-42.4 z"
   id="path8"
   style="fill:#0e3baf" />
</g></g>
</svg>
