<?xml version="1.0" encoding="UTF-8" standalone="no"?>
<!-- Generator: Adobe Illustrator 16.0.0, SVG Export Plug-In . SVG Version: 6.00 Build 0)  -->

<svg
   version="1.1"
   id="Layer_1"
   x="0px"
   y="0px"
   width="280px"
   height="280px"
   viewBox="0 0 280 280"
   enable-background="new 0 0 280 280"
   xml:space="preserve"
   sodipodi:docname="stvr1.svg"
   inkscape:version="1.4 (e7c3feb100, 2024-10-09)"
   xmlns:inkscape="http://www.inkscape.org/namespaces/inkscape"
   xmlns:sodipodi="http://sodipodi.sourceforge.net/DTD/sodipodi-0.dtd"
   xmlns="http://www.w3.org/2000/svg"
   xmlns:svg="http://www.w3.org/2000/svg"><defs
   id="defs10478" /><sodipodi:namedview
   id="namedview10478"
   pagecolor="#ffffff"
   bordercolor="#000000"
   borderopacity="0.25"
   inkscape:showpageshadow="2"
   inkscape:pageopacity="0.0"
   inkscape:pagecheckerboard="0"
   inkscape:deskcolor="#d1d1d1"
   inkscape:zoom="1.32"
   inkscape:cx="-51.893939"
   inkscape:cy="86.363636"
   inkscape:window-width="1600"
   inkscape:window-height="826"
   inkscape:window-x="0"
   inkscape:window-y="0"
   inkscape:window-maximized="1"
   inkscape:current-layer="g10478" />

<g
   id="g10478">
	
	
	
	
<path
   style="fill:#ed245a;fill-opacity:1;stroke-width:0.762281"
   d="m 166.77441,163.90202 c 0,-42.55433 -0.20166,-77.371509 -0.44813,-77.371509 -0.24647,0 -4.35098,1.543619 -9.12113,3.430264 -12.73605,5.037244 -19.27666,4.435331 -24.37026,-2.242721 -1.81505,-2.379655 -13.33351,-29.457054 -13.31367,-31.297546 0.005,-0.419304 2.65402,-2.134476 5.88777,-3.811494 3.23376,-1.677018 8.80424,-4.634515 12.37885,-6.572216 3.57461,-1.9377 15.49826,-8.369445 26.49702,-14.292765 l 19.99773,-10.769674 h 17.5446 17.54459 V 124.96249 c 0,100.45943 -0.0492,104.10277 -1.44791,107.36599 -0.79635,1.85781 -2.42572,4.14708 -3.62083,5.08727 -4.64792,3.65649 -6.07865,3.85777 -27.42128,3.85777 H 166.77441 Z M 57.140361,211.52521 c -9.043805,-1.87306 -17.075867,-8.09544 -21.143137,-16.37941 -2.047516,-4.17026 -2.240814,-5.25439 -2.240814,-12.5679 0,-7.20703 0.218142,-8.47621 2.190921,-12.74714 2.684437,-5.81163 8.63293,-11.67064 14.767812,-14.54565 3.846282,-1.8025 5.321829,-2.05502 12.007939,-2.05502 6.68611,0 8.161657,0.25252 12.007938,2.05502 18.996467,8.9024 23.574022,33.32773 8.980862,47.92089 -6.776865,6.77687 -17.622807,10.17259 -26.571521,8.31921 z m -0.626018,-90.72217 c -8.145236,-1.61207 -17.034626,-8.72071 -20.708792,-16.56033 -1.816292,-3.87545 -2.049141,-5.281796 -2.049141,-12.376233 0,-7.088505 0.233661,-8.502479 2.042955,-12.36272 2.867146,-6.117233 8.229381,-11.569371 14.278148,-14.517536 4.650212,-2.266509 5.58816,-2.446178 12.645569,-2.422329 6.601752,0.02231 8.210237,0.296319 12.008322,2.045652 5.747074,2.647003 11.975296,8.61526 14.613832,14.003853 10.856174,22.171203 -8.4731,47.010463 -32.830893,42.189643 z"
   id="path1" /></g>
</svg>
