<?xml version="1.0" encoding="UTF-8" standalone="no"?>
<!-- Generator: Adobe Illustrator 16.0.0, SVG Export Plug-In . SVG Version: 6.00 Build 0)  -->

<svg
   version="1.1"
   id="Layer_1"
   x="0px"
   y="0px"
   width="280px"
   height="280px"
   viewBox="0 0 280 280"
   enable-background="new 0 0 280 280"
   xml:space="preserve"
   sodipodi:docname="stvr24.svg"
   inkscape:version="1.4 (e7c3feb100, 2024-10-09)"
   xmlns:inkscape="http://www.inkscape.org/namespaces/inkscape"
   xmlns:sodipodi="http://sodipodi.sourceforge.net/DTD/sodipodi-0.dtd"
   xmlns="http://www.w3.org/2000/svg"
   xmlns:svg="http://www.w3.org/2000/svg"><defs
   id="defs10478" /><sodipodi:namedview
   id="namedview10478"
   pagecolor="#ffffff"
   bordercolor="#000000"
   borderopacity="0.25"
   inkscape:showpageshadow="2"
   inkscape:pageopacity="0.0"
   inkscape:pagecheckerboard="0"
   inkscape:deskcolor="#d1d1d1"
   inkscape:zoom="1.32"
   inkscape:cx="197.34848"
   inkscape:cy="86.363636"
   inkscape:window-width="1600"
   inkscape:window-height="826"
   inkscape:window-x="0"
   inkscape:window-y="0"
   inkscape:window-maximized="1"
   inkscape:current-layer="g10478" />

<g
   id="g10478">
	
	
	
	
<path
   style="fill:#ffffff;stroke-width:0.638257"
   d="m 75.228363,208.57035 c -3.451865,-2.30601 -4.400481,-4.9226 -4.401635,-12.14109 -0.0026,-15.24328 4.665869,-26.22123 15.938674,-37.48141 6.585744,-6.57837 12.998106,-11.00491 29.432248,-20.31746 14.93478,-8.46293 18.40903,-11.08138 20.63797,-15.55425 1.9071,-3.82709 2.0231,-5.54506 0.64701,-9.58366 -2.61704,-7.68056 -12.06518,-12.38256 -21.45865,-10.6792 -5.60151,1.01575 -8.64156,2.11632 -17.928487,6.49054 -7.528683,3.54607 -8.381725,3.80617 -11.131027,3.39388 -5.092589,-0.76368 -6.965998,-3.50147 -12.527897,-18.308259 -1.842237,-4.904397 -2.17159,-4.276045 4.627995,-8.829381 5.186494,-3.47313 16.90347,-9.009108 22.716676,-10.733047 13.03866,-3.866712 26.64429,-3.513386 37.94449,0.985386 6.95424,2.768582 11.60625,5.889975 17.29634,11.605418 8.6071,8.645461 12.22028,17.028293 12.26617,28.458333 0.0447,11.12134 -3.60208,19.69516 -11.96918,28.14072 -6.28854,6.34751 -9.4503,8.49044 -26.70912,18.10252 -19.14002,10.65979 -23.37492,13.48419 -25.03678,16.69789 -0.50588,0.97824 -0.91977,1.93649 -0.91977,2.12945 0,0.19296 12.99652,0.35505 28.88115,0.36024 21.82062,0.006 29.26656,0.20441 30.45765,0.80711 0.86706,0.43874 2.23134,1.76945 3.03172,2.95714 1.37983,2.04752 1.45524,2.74988 1.45524,13.55367 v 11.39424 H 122.93812 77.397088 Z m 155.800027,-12.912 V 181.29754 H 206.9242 c -26.87333,0 -26.94608,-0.0104 -29.98814,-4.46748 -1.35855,-1.99028 -1.43608,-2.72595 -1.43608,-13.62681 v -11.52296 l 16.99706,-38.64544 c 9.34839,-21.254989 17.20807,-38.879547 17.46598,-39.165677 0.52292,-0.580164 19.43193,7.480825 21.29027,9.076137 1.56854,1.346525 2.96638,4.123093 2.96638,5.89219 0,0.784961 -6.03153,15.13352 -13.40341,31.88568 -7.37187,16.75218 -13.40341,30.77221 -13.40341,31.15564 0,0.47889 3.69652,0.69713 11.80777,0.69713 h 11.80777 v -8.64817 c 0,-14.0017 0.39302,-14.32909 17.20125,-14.32909 h 11.52034 v 11.48864 11.48862 h 3.54211 c 1.94816,0 4.37206,0.42919 5.38644,0.95375 3.64337,1.88405 3.8366,2.67895 3.8366,15.78297 v 11.98487 h -6.38257 -6.38258 l -0.0226,11.64821 c -0.0245,12.62938 -0.25732,13.67321 -3.53082,15.83112 -1.6774,1.10574 -3.08121,1.23429 -13.51994,1.23806 l -11.64821,0.004 z M 28.062478,190.82247 c -3.498164,-1.5802 -7.293056,-5.13558 -9.144676,-8.56753 -1.119903,-2.07574 -1.377423,-3.62694 -1.377423,-8.29736 0,-6.5792 1.026113,-9.18451 5.202386,-13.20891 3.62761,-3.49569 7.345951,-4.95076 12.693921,-4.9674 19.147835,-0.0596 25.040967,26.13169 7.811556,34.71748 -4.292719,2.13913 -10.857103,2.27908 -15.185764,0.32372 z m 1.839644,-55.72236 c -8.053302,-2.87785 -12.69002,-9.34355 -12.69002,-17.69565 0,-6.86932 3.558889,-12.84715 9.660533,-16.22668 3.004083,-1.663884 4.049612,-1.894972 8.529807,-1.885276 4.045529,0.0087 5.665942,0.307927 7.801705,1.440396 11.340582,6.01331 13.795562,20.89029 4.913058,29.77279 -4.763728,4.76373 -12.371451,6.68264 -18.215083,4.59442 z"
   id="path3"
   sodipodi:nodetypes="scssssssssssssssssssssscccsccssscssssssscsscccssscccsssccssssssssssssss" /></g>
</svg>
