<?xml version="1.0" encoding="UTF-8" standalone="no"?>
<!-- Generator: Adobe Illustrator 16.0.0, SVG Export Plug-In . SVG Version: 6.00 Build 0)  -->

<svg
   version="1.1"
   id="Layer_1"
   x="0px"
   y="0px"
   width="280px"
   height="280px"
   viewBox="0 0 280 280"
   enable-background="new 0 0 280 280"
   xml:space="preserve"
   sodipodi:docname="stvr2.svg"
   inkscape:version="1.4 (e7c3feb100, 2024-10-09)"
   xmlns:inkscape="http://www.inkscape.org/namespaces/inkscape"
   xmlns:sodipodi="http://sodipodi.sourceforge.net/DTD/sodipodi-0.dtd"
   xmlns="http://www.w3.org/2000/svg"
   xmlns:svg="http://www.w3.org/2000/svg"><defs
   id="defs10478" /><sodipodi:namedview
   id="namedview10478"
   pagecolor="#ffffff"
   bordercolor="#000000"
   borderopacity="0.25"
   inkscape:showpageshadow="2"
   inkscape:pageopacity="0.0"
   inkscape:pagecheckerboard="0"
   inkscape:deskcolor="#d1d1d1"
   inkscape:zoom="1.32"
   inkscape:cx="160.98485"
   inkscape:cy="59.090909"
   inkscape:window-width="1600"
   inkscape:window-height="826"
   inkscape:window-x="0"
   inkscape:window-y="0"
   inkscape:window-maximized="1"
   inkscape:current-layer="g10478" />

<g
   id="g10478">
	
	
	
	
<path
   style="fill:#000000;stroke-width:2.07778"
   d="m 104.89119,249.46785 c -5.131368,-5.13136 -5.330528,-6.16849 -4.28914,-22.33612 2.62053,-40.68417 19.64763,-61.57018 76.10658,-93.35487 28.69263,-16.1531 37.64165,-24.86187 37.64165,-36.631113 0,-14.96905 -12.81391,-25.15913 -31.58295,-25.11589 -8.16135,0.0187 -15.31394,1.96897 -27.63377,7.53445 -18.8623,8.52102 -27.82054,10.44343 -33.78659,7.2505 -2.36984,-1.2683 -7.04476,-9.43747 -10.96235,-19.156105 l -6.83045,-16.944779 5.0119,-3.954401 c 16.34669,-12.897568 54.73844,-26.603815 74.70042,-26.668808 21.67667,-0.07058 48.36674,10.909535 63.63703,26.17983 13.91065,13.910635 20.31767,29.326753 20.1941,48.589513 -0.21775,33.941433 -15.13604,50.697573 -73.81012,82.903133 -20.29374,11.139 -35.03727,21.78205 -35.03727,25.29268 0,1.12894 20.25356,1.9265 48.92228,1.9265 h 48.92225 l 5.10001,5.10001 c 4.70243,4.70243 5.1,6.64609 5.1,24.93336 v 19.83333 H 188.2836 110.27241 Z M 26.141771,221.66933 C 20.450614,219.36702 11.063411,208.08152 9.4316495,201.58007 8.7193855,198.74217 8.6248125,192.78051 9.2214925,188.33193 12.454388,164.2289 41.144946,153.77398 59.596893,169.975 c 16.258014,14.27473 13.470569,40.91736 -5.296258,50.62207 -6.445775,3.33323 -21.182714,3.8944 -28.158864,1.07226 z M 23.695023,123.9602 C 2.8906345,111.27561 3.7502735,81.038007 25.239931,69.618389 c 14.936423,-7.937223 34.089855,-1.675226 41.463116,13.555898 5.470427,11.30039 5.39148,16.949673 -0.394554,28.233463 -8.048865,15.69671 -27.876998,21.53739 -42.61347,12.55245 z"
   id="path2"
   sodipodi:nodetypes="sssssssscssssssscsscccssssssssssss" /></g>
</svg>
